<svg xmlns="http://www.w3.org/2000/svg" width="36" height="32" viewBox="0 0 36 32"><defs><style>.a{fill:#565656;fill-rule:evenodd;}</style></defs><g transform="translate(-128 -407)"><g transform="translate(113 209)"><g transform="translate(0 194)"><path class="a" d="M28.157,4l4.155,4.132,15.72-.083A2.96,2.96,0,0,1,51,11v1.18h0V33.007A3,3,0,0,1,47.993,36H18.007A3,3,0,0,1,15,33.007V6.951A2.96,2.96,0,0,1,17.968,4ZM21,23a2,2,0,1,0,2,2A2,2,0,0,0,21,23Zm6,0a2,2,0,1,0,2,2A2,2,0,0,0,27,23Zm6,0a2,2,0,1,0,2,2A2,2,0,0,0,33,23Zm6,0a2,2,0,1,0,2,2A2,2,0,0,0,39,23Zm6,0a2,2,0,1,0,2,2A2,2,0,0,0,45,23Zm2-6H19v3H47Z"/></g></g></g></svg>