<svg xmlns="http://www.w3.org/2000/svg" width="36" height="32" viewBox="0 0 36 32"><defs><style>.a{fill:#565656;fill-rule:evenodd;}</style></defs><g transform="translate(-128 -645)"><g transform="translate(113 209)"><g transform="translate(0 429)"><path class="a" d="M28.157,7l4.155,4.132,15.72-.083A2.96,2.96,0,0,1,51,14V36.007A3,3,0,0,1,47.993,39H18.007A3,3,0,0,1,15,36.007V9.951A2.96,2.96,0,0,1,17.968,7Zm5.414,7a10.328,10.328,0,0,0-8.68,15.928L24,32.287l-1,2.62,2.62-1,2.362-.9A10.329,10.329,0,1,0,33.572,14Zm5.237,12.68a2.31,2.31,0,0,1-.054.967,3.581,3.581,0,0,1-.356.895,4.542,4.542,0,0,1-1.29,1.429,5.65,5.65,0,0,1-1.714.841,6.369,6.369,0,0,1-.913.2c-.152.022-.305.038-.457.05l-.228.013-.113,0-.122,0h-.1l-.125,0c-.078,0-.156,0-.235-.01-.157-.009-.314-.025-.471-.046a6.162,6.162,0,0,1-.935-.2,5.5,5.5,0,0,1-1.723-.868,4.609,4.609,0,0,1-1.26-1.434,3.813,3.813,0,0,1-.353-.881,2.529,2.529,0,0,1-.082-.957c.313.1.591.168.857.232s.518.11.758.151a13.125,13.125,0,0,0,1.318.153c.407.026,1.075.039,1.454.04l.7,0h.968c.392,0,1.162-.034,1.57-.052a12.6,12.6,0,0,0,1.305-.128c.236-.037.484-.082.747-.145A8.147,8.147,0,0,0,38.808,26.68ZM36.32,19.411a1.651,1.651,0,1,1-1.651,1.651A1.651,1.651,0,0,1,36.32,19.411Zm-5.551,0a1.651,1.651,0,1,1-1.651,1.651A1.651,1.651,0,0,1,30.769,19.411Z"/></g></g></g></svg>