<svg xmlns="http://www.w3.org/2000/svg" width="36" height="32" viewBox="0 0 36 32"><defs><style>.a{fill:#565656;fill-rule:evenodd;}</style></defs><g transform="translate(-128 -548)"><g transform="translate(113 209)"><g transform="translate(0 335)"><path class="a" d="M28.157,4l4.155,4.132,15.72-.083A2.96,2.96,0,0,1,51,11V33.007A3,3,0,0,1,47.993,36H18.007A3,3,0,0,1,15,33.007V6.951A2.96,2.96,0,0,1,17.968,4ZM29.75,22.194H21v1.392h8.75a9.242,9.242,0,0,1,7.23,3.477h0l-2.418,1.282L40.531,32l.219-6.936-2.5,1.326a10.792,10.792,0,0,0-8.5-4.2ZM40.531,11l-5.969,3.655,2.418,1.282a9.242,9.242,0,0,1-7.23,3.477H21v1.392h8.75a10.792,10.792,0,0,0,8.5-4.2l2.5,1.326Z"/></g></g></g></svg>