<svg xmlns="http://www.w3.org/2000/svg" width="49.632" height="38.5" viewBox="0 0 49.632 38.5"><defs><style>.a{fill:none;stroke:#fff;stroke-width:4px;opacity:0.7;}.b{fill:#fff;}</style></defs><g transform="translate(-2036.776 -230.5)"><path class="a" d="M0,0V17.866" transform="translate(2063.5 230.5)"/><path class="b" d="M9.408,0V-16.8H6.7a3.709,3.709,0,0,1-.6,1.608A3.651,3.651,0,0,1,4.98-14.148a4.476,4.476,0,0,1-1.488.552,8.068,8.068,0,0,1-1.716.132V-10.9H6V0Z" transform="translate(2035 269)"/><path class="b" d="M9.408,0V-16.8H6.7a3.709,3.709,0,0,1-.6,1.608A3.651,3.651,0,0,1,4.98-14.148a4.476,4.476,0,0,1-1.488.552,8.068,8.068,0,0,1-1.716.132V-10.9H6V0Z" transform="translate(2077 269)"/></g></svg>