<svg xmlns="http://www.w3.org/2000/svg" width="51.904" height="38.5" viewBox="0 0 51.904 38.5"><defs><style>.a,.b{fill:none;stroke:#fff;}.a{stroke-width:2px;opacity:0.5;}.b{stroke-width:4px;opacity:0.7;}.c{fill:#fff;}</style></defs><g transform="translate(-2105.504 -230.5)"><path class="a" d="M0,0V10.26" transform="translate(2120.5 230.5)"/><path class="b" d="M0,0V17.866" transform="translate(2141.5 230.5)"/><path class="c" d="M.888-10.344H4.152A7.143,7.143,0,0,1,4.284-11.7a4.206,4.206,0,0,1,.444-1.248,2.6,2.6,0,0,1,.828-.912,2.2,2.2,0,0,1,1.26-.348,2.5,2.5,0,0,1,1.812.684,2.529,2.529,0,0,1,.708,1.908,2.676,2.676,0,0,1-.348,1.368,4.665,4.665,0,0,1-.864,1.08,7.82,7.82,0,0,1-1.14.876q-.624.4-1.176.78-1.08.744-2.052,1.464A9.972,9.972,0,0,0,2.064-4.476,6.769,6.769,0,0,0,.924-2.544,7,7,0,0,0,.5,0H12.84V-2.928H4.9A7.6,7.6,0,0,1,6.336-4.44q.816-.648,1.68-1.212t1.716-1.14a9.179,9.179,0,0,0,1.524-1.284,5.736,5.736,0,0,0,1.08-1.62,5.321,5.321,0,0,0,.408-2.184,5.077,5.077,0,0,0-.468-2.208,4.9,4.9,0,0,0-1.26-1.656A5.657,5.657,0,0,0,9.18-16.776a6.689,6.689,0,0,0-2.2-.36,6.545,6.545,0,0,0-2.676.516,5.219,5.219,0,0,0-1.932,1.44,6.228,6.228,0,0,0-1.152,2.16A8.061,8.061,0,0,0,.888-10.344Z" transform="translate(2105 269)"/><path class="c" d="M9.408,0V-16.8H6.7a3.709,3.709,0,0,1-.6,1.608A3.651,3.651,0,0,1,4.98-14.148a4.476,4.476,0,0,1-1.488.552,8.068,8.068,0,0,1-1.716.132V-10.9H6V0Z" transform="translate(2148 269)"/></g></svg>