<svg xmlns="http://www.w3.org/2000/svg" width="50.977" height="38.5" viewBox="0 0 50.977 38.5"><defs><style>.a,.b{fill:none;stroke:#fff;}.a{stroke-width:2px;opacity:0.5;}.b{stroke-width:4px;opacity:0.7;}.c{fill:#fff;}</style></defs><g transform="translate(-2176.431 -230.5)"><path class="a" d="M0,0V10.26" transform="translate(2184.5 230.5)"/><path class="a" d="M0,0V10.26" transform="translate(2200.5 230.5)"/><path class="b" d="M0,0V17.866" transform="translate(2216.5 230.5)"/><path class="c" d="M5.472-10.008v2.4q.624,0,1.308.036a3.968,3.968,0,0,1,1.26.264,2.133,2.133,0,0,1,.948.732A2.441,2.441,0,0,1,9.36-5.112,2.46,2.46,0,0,1,8.568-3.18a2.812,2.812,0,0,1-1.944.708A2.9,2.9,0,0,1,5.34-2.736a2.625,2.625,0,0,1-.9-.708A3.157,3.157,0,0,1,3.888-4.5a4.848,4.848,0,0,1-.216-1.284H.432a6.734,6.734,0,0,0,.42,2.592,5.266,5.266,0,0,0,1.26,1.908A5.412,5.412,0,0,0,4.092-.1a7.758,7.758,0,0,0,2.58.408,7.689,7.689,0,0,0,2.352-.36A6.1,6.1,0,0,0,11.016-1.1,5.137,5.137,0,0,0,12.4-2.832a5.189,5.189,0,0,0,.516-2.352,3.941,3.941,0,0,0-.792-2.472A3.658,3.658,0,0,0,9.936-9v-.048A2.949,2.949,0,0,0,11.7-10.32a3.974,3.974,0,0,0,.588-2.16,3.88,3.88,0,0,0-.5-1.992,4.872,4.872,0,0,0-1.308-1.464,5.738,5.738,0,0,0-1.812-.9,7.036,7.036,0,0,0-2.016-.3,6.314,6.314,0,0,0-2.352.42,5.209,5.209,0,0,0-1.812,1.188,5.4,5.4,0,0,0-1.176,1.836A7.141,7.141,0,0,0,.84-11.328H4.08a3.3,3.3,0,0,1,.636-2.148,2.322,2.322,0,0,1,1.956-.852,2.576,2.576,0,0,1,1.656.576,2,2,0,0,1,.72,1.656A1.782,1.782,0,0,1,8.7-10.944a2.234,2.234,0,0,1-.888.66,3.7,3.7,0,0,1-1.164.276A7.208,7.208,0,0,1,5.472-10.008Z" transform="translate(2176 268)"/><path class="c" d="M9.408,0V-16.8H6.7a3.709,3.709,0,0,1-.6,1.608A3.651,3.651,0,0,1,4.98-14.148a4.476,4.476,0,0,1-1.488.552,8.068,8.068,0,0,1-1.716.132V-10.9H6V0Z" transform="translate(2218 269)"/></g></svg>