<svg xmlns="http://www.w3.org/2000/svg" width="54.976" height="38.813" viewBox="0 0 54.976 38.813"><defs><style>.a,.b{fill:none;stroke:#fff;}.a{stroke-width:2px;opacity:0.5;}.b{stroke-width:4px;opacity:0.7;}.c{fill:#fff;}</style></defs><g transform="translate(-2243.432 -230.5)"><path class="a" d="M0,0V11.44" transform="translate(2248 230.5)"/><path class="a" d="M0,0V11.44" transform="translate(2259.351 230.5)"/><path class="a" d="M0,0V11.44" transform="translate(2270.703 230.5)"/><path class="a" d="M0,0V11.44" transform="translate(2282.054 230.5)"/><path class="b" d="M0,0V17.866" transform="translate(2293.405 230.5)"/><path class="c" d="M12-13.992V-16.8H2.616L.96-7.512H4.032a3.474,3.474,0,0,1,1.08-1.02A3.016,3.016,0,0,1,6.6-8.856a2.931,2.931,0,0,1,1.224.24,2.7,2.7,0,0,1,.912.672,2.859,2.859,0,0,1,.576,1.008A3.846,3.846,0,0,1,9.5-5.712,3.672,3.672,0,0,1,9.3-4.5a3.246,3.246,0,0,1-.576,1.032,2.89,2.89,0,0,1-.912.72A2.624,2.624,0,0,1,6.6-2.472a2.692,2.692,0,0,1-1.9-.684A2.787,2.787,0,0,1,3.84-4.992H.432a5.176,5.176,0,0,0,.54,2.316,5,5,0,0,0,1.38,1.668,5.843,5.843,0,0,0,1.98,1,8.351,8.351,0,0,0,2.34.324,6.169,6.169,0,0,0,2.4-.42,6.018,6.018,0,0,0,1.98-1.26A6.15,6.15,0,0,0,12.408-3.3a5.791,5.791,0,0,0,.5-2.412,6.975,6.975,0,0,0-.348-2.22,5.333,5.333,0,0,0-1.008-1.812,4.849,4.849,0,0,0-1.62-1.224,5.089,5.089,0,0,0-2.208-.456,5.055,5.055,0,0,0-1.8.3,4.233,4.233,0,0,0-1.488,1l-.048-.048.672-3.816Z" transform="translate(2243 269)"/><path class="c" d="M9.408,0V-16.8H6.7a3.709,3.709,0,0,1-.6,1.608A3.651,3.651,0,0,1,4.98-14.148a4.476,4.476,0,0,1-1.488.552,8.068,8.068,0,0,1-1.716.132V-10.9H6V0Z" transform="translate(2289 269)"/></g></svg>