<svg xmlns="http://www.w3.org/2000/svg" width="32" height="32" viewBox="0 0 32 32"><defs><style>.a{fill:none;}.b{fill:#fff;}</style></defs><path class="a" d="M0,0H32V32H0Z"/><path class="b" d="M18.667,23.333A2.667,2.667,0,1,0,16,20.667,2.666,2.666,0,0,0,18.667,23.333Zm8-12H25.333V8.667A6.667,6.667,0,1,0,12,8.667h2.533a4.133,4.133,0,1,1,8.267,0v2.667H10.667A2.666,2.666,0,0,0,8,14V27.333A2.666,2.666,0,0,0,10.667,30h16a2.666,2.666,0,0,0,2.667-2.667V14A2.666,2.666,0,0,0,26.667,11.333Zm0,16h-16V14h16Z" transform="translate(-2.667 -0.667)"/></svg>