<svg xmlns="http://www.w3.org/2000/svg" width="48" height="48" viewBox="0 0 48 48"><defs><style>.a{fill:#30b7a7;}.b{fill:none;}.c{fill:#fff;}</style></defs><rect class="a" width="48" height="48" rx="10"/><g transform="translate(5 5)"><rect class="b" width="38" height="38"/><path class="c" d="M29.334,9.46H12.494a.508.508,0,0,1-.444-.553v-6.7a2.271,2.271,0,0,0-1.1-2.043A1.533,1.533,0,0,0,9.015.648L.52,11.214a2.609,2.609,0,0,0,0,3.127L9.015,24.908a1.623,1.623,0,0,0,1.257.648,2.031,2.031,0,0,0,1.778-2.212v-6.7a.508.508,0,0,1,.444-.553H29.334c1.473,0,2.667-1.485,2.667-3.317S30.807,9.46,29.334,9.46Z" transform="translate(35.001 31.556) rotate(180)"/></g></svg>