<svg xmlns="http://www.w3.org/2000/svg" width="24" height="24" viewBox="0 0 24 24"><defs><style>.a{fill:none;}.b{fill:#fff;}</style></defs><rect class="a" width="24" height="24"/><path class="b" d="M10.5,10.915a1.5,1.5,0,0,0,3,0V1.5a1.5,1.5,0,1,0-3,0Z" transform="translate(-0.089)"/><path class="b" d="M1.2,11.533A10.908,10.908,0,1,0,17.067,3.4,1.5,1.5,0,1,0,15.63,6.03a8.048,8.048,0,0,1,4.2,5.925,7.915,7.915,0,1,1-15.667,0,8.042,8.042,0,0,1,4.2-5.922A1.5,1.5,0,1,0,6.919,3.4,11.015,11.015,0,0,0,1.2,11.533Z" transform="translate(-0.089)"/></svg>