<svg xmlns="http://www.w3.org/2000/svg" xmlns:xlink="http://www.w3.org/1999/xlink" width="31.383" height="23.867" viewBox="0 0 31.383 23.867"><defs><style>.a{clip-rule:evenodd;}.b{clip-path:url(#a);}.c{clip-path:url(#b);}.d{clip-path:url(#c);}.e{clip-path:url(#e);}.f{clip-path:url(#g);}</style><clipPath id="a"><path class="a" d="M20.28-15.694c-.583.088-.945.476-.808.866h0a7.985,7.985,0,0,1,.468,2.709,8.188,8.188,0,0,1-.477,2.74c-.14.389.23.776.816.868a1.557,1.557,0,0,0,.248.018,1.1,1.1,0,0,0,1.059-.558,9.448,9.448,0,0,0,.534-3.068,9.283,9.283,0,0,0-.529-3.039,1.184,1.184,0,0,0-1.306-.537"/></clipPath><clipPath id="b"><path d="M-413,323H355V-701H-413Z"/></clipPath><clipPath id="c"><path class="a" d="M25.233-17.919a1.281,1.281,0,0,0-1.383-.444c-.565.128-.867.539-.669.916a11.444,11.444,0,0,1,1.338,5.324,11.614,11.614,0,0,1-1.352,5.365c-.2.375.1.789.673.917a1.6,1.6,0,0,0,.353.039,1.162,1.162,0,0,0,1.035-.488,12.66,12.66,0,0,0,1.466-5.834,12.38,12.38,0,0,0-1.46-5.8"/></clipPath><clipPath id="e"><path class="a" d="M28.1-21.851a1.366,1.366,0,0,0-1.448-.346c-.542.168-.774.6-.519.96h-.005a15.678,15.678,0,0,1,3.075,9.126,15.678,15.678,0,0,1-3.075,9.129c-.257.361-.024.792.524.963a1.586,1.586,0,0,0,.458.066,1.227,1.227,0,0,0,.99-.414,16.774,16.774,0,0,0,3.286-9.743A16.785,16.785,0,0,0,28.1-21.851"/></clipPath><clipPath id="g"><path class="a" d="M15.242-23.614c-1.542.976-5.487,4.3-7.757,6.236H.815a.8.8,0,0,0-.807.8v9.159a.8.8,0,0,0,.807.8H7.634c2.29,1.956,6.1,5.154,7.608,6.109,1.923,1.217,2.17-.838,2.17-.838v-21.42s-.246-2.056-2.17-.838"/></clipPath></defs><g transform="translate(31.383 23.867) rotate(180)"><g class="b" transform="translate(-0.008 24)"><g class="c"><path d="M14.429-20.714H27.115V-3.492H14.429Z"/></g></g><g class="d" transform="translate(-0.008 24)"><g class="c"><path d="M18.106-23.4H31.693V-.8H18.106Z"/></g></g><g class="e" transform="translate(-0.008 24)"><g class="c"><path d="M21.029-27.267H36.391V3.047H21.029Z"/></g></g><g class="f" transform="translate(-0.008 24)"><g class="c"><path d="M-4.992-29h27.4V4.867h-27.4Z"/></g></g></g></svg>