<svg xmlns="http://www.w3.org/2000/svg" width="73" height="73" viewBox="0 0 73 73"><defs><style>.a{fill:rgba(48,183,167,0.5);}.a,.b{stroke:#30b7a7;stroke-width:2px;}.c{stroke:none;}.d{fill:none;}</style></defs><g transform="translate(-96.414 -0.076)"><g transform="translate(96.076 0.076)"><g class="a" transform="translate(0.338)"><rect class="c" width="73" height="73" rx="10"/><rect class="d" x="1" y="1" width="71" height="71" rx="9"/></g><path class="b" d="M5.312.537A3.883,3.883,0,0,0,1.829.306,2.8,2.8,0,0,0,0,2.812V36.746a2.8,2.8,0,0,0,1.829,2.5,3.853,3.853,0,0,0,1.517.306,3.786,3.786,0,0,0,1.966-.537l27.8-16.967a2.565,2.565,0,0,0,0-4.55Z" transform="translate(23.348 17.311)"/></g></g></svg>