<?xml version="1.0" encoding="UTF-8"?>
<svg width="203px" height="40px" viewBox="0 0 203 40" version="1.1" xmlns="http://www.w3.org/2000/svg" xmlns:xlink="http://www.w3.org/1999/xlink">
    <!-- Generator: Sketch 49.2 (51160) - http://www.bohemiancoding.com/sketch -->
    <title>logo_fonofone</title>
    <desc>Created with Sketch.</desc>
    <defs>
        <polygon id="path-1" points="0 0.346666667 17.6830503 0.346666667 17.6830503 39.5868 0 39.5868"></polygon>
        <polygon id="path-3" points="0.278537415 0.346666667 17.9617774 0.346666667 17.9617774 39.5868 0.278537415 39.5868"></polygon>
        <polygon id="path-5" points="0.820133333 0.712666667 26.0557429 0.712666667 26.0557429 26.6666667 0.820133333 26.6666667"></polygon>
    </defs>
    <g id="Page-1" stroke="none" stroke-width="1" fill="none" fill-rule="evenodd">
        <g id="Mobile" transform="translate(-214.000000, 0.000000)">
            <g id="logo_fonofone" transform="translate(214.000000, 0.000000)">
                <g id="Group-3">
                    <mask id="mask-2" fill="white">
                        <use xlink:href="#path-1"></use>
                    </mask>
                    <g id="Clip-2"></g>
                    <path d="M16.8957823,7.5348 C15.7389796,8.76813333 13.8376871,8.82146667 12.5826531,7.6868 C11.8834014,7.01346667 10.9812245,6.59746667 9.97564626,6.59746667 C7.87142857,6.59746667 6.16530612,8.41213333 6.16530612,10.6334667 L6.16530612,17.0454667 L10.9321088,17.0454667 C12.5826531,17.0454667 13.987619,18.4388 13.987619,20.1494667 C13.987619,21.9028 12.5826531,23.3028 10.9321088,23.3028 L6.16530612,23.3028 L6.16530612,36.4348 C6.16530612,38.1348 4.76163265,39.5868 3.05809524,39.5868 C1.40496599,39.5868 0,38.1348 0,36.4348 L0,36.3281333 L0,23.9708 L0,10.6334667 C0,4.94546667 4.51863946,0.345466667 9.97564626,0.345466667 C12.4792517,0.345466667 14.8872109,1.3268 16.7393878,3.08013333 C17.9440136,4.2748 17.9944218,6.28946667 16.8957823,7.5348" id="Fill-1" fill="#231F20" mask="url(#mask-2)"></path>
                </g>
                <circle id="Oval" fill="#DA222B" cx="30" cy="26" r="9"></circle>
                <path d="M29.9756081,19.6360745 C26.3445184,19.6360745 23.4319995,22.5503162 23.4319995,26.1911367 C23.4319995,29.8240309 26.3445184,32.74752 29.9756081,32.74752 C33.6066979,32.74752 36.5165799,29.8240309 36.5165799,26.1911367 C36.5165799,22.5503162 33.6066979,19.6360745 29.9756081,19.6360745 M29.9756081,39.047619 C22.9177929,39.047619 17.1428571,33.3076462 17.1428571,26.1911367 C17.1428571,19.1142588 22.9177929,13.3333333 29.9756081,13.3333333 C37.0281495,13.3333333 42.8070407,19.1142588 42.8571429,26.2400157 C42.8070407,33.3076462 37.0281495,39.047619 29.9756081,39.047619" id="Fill-4" fill="#231F20"></path>
                <path d="M70.4761905,26.28955 L70.4761905,35.967083 C70.4761905,37.6605852 69.1686183,39.047619 67.4993495,39.047619 C65.7871455,39.047619 64.4730679,37.6605852 64.4730679,35.967083 L64.4730679,26.28955 C64.4730679,22.6568425 61.8501171,19.7348246 58.6690086,19.7348246 C54.7384856,19.7348246 52.7205308,23.7294819 52.7205308,27.2657576 L52.7205308,35.967083 C52.7205308,37.6605852 51.3583138,39.047619 49.6942493,39.047619 C48.0288837,39.047619 46.6666667,37.6605852 46.6666667,35.967083 L46.6666667,16.4059435 C46.6666667,14.7124412 48.0288837,13.3333333 49.6942493,13.3333333 C51.0057247,13.3333333 52.1103305,14.2038622 52.5136612,15.4297359 C54.3338538,14.2527386 56.399948,13.5882834 58.6690086,13.5882834 C65.1834504,13.5882834 70.4761905,19.2764429 70.4761905,26.28955" id="Fill-6" fill="#231F20"></path>
                <path d="M87.1204488,19.6360745 C83.4863353,19.6360745 80.5798354,22.5503162 80.5798354,26.1911367 C80.5798354,29.8240309 83.4863353,32.74752 87.1204488,32.74752 C90.7492897,32.74752 93.6650165,29.8240309 93.6650165,26.1911367 C93.6650165,22.5503162 90.7492897,19.6360745 87.1204488,19.6360745 M87.1204488,39.047619 C80.0644424,39.047619 74.2857143,33.3076462 74.2857143,26.1911367 C74.2857143,19.1142588 80.0644424,13.3333333 87.1204488,13.3333333 C94.1738188,13.3333333 99.9485925,19.1142588 100,26.2400157 C99.9485925,33.3076462 94.1738188,39.047619 87.1204488,39.047619" id="Fill-8" fill="#231F20"></path>
                <g id="Group-12" transform="translate(103.809524, 0.000000)">
                    <mask id="mask-4" fill="white">
                        <use xlink:href="#path-3"></use>
                    </mask>
                    <g id="Clip-11"></g>
                    <path d="M17.1691497,7.5348 C16.020102,8.76813333 14.1084694,8.82146667 12.8547279,7.6868 C12.1619388,7.01346667 11.2520068,6.59746667 10.2490136,6.59746667 C8.14479592,6.59746667 6.43867347,8.41213333 6.43867347,10.6334667 L6.43867347,17.0454667 L11.2028912,17.0454667 C12.8547279,17.0454667 14.2648639,18.4388 14.2648639,20.1494667 C14.2648639,21.9028 12.8547279,23.3028 11.2028912,23.3028 L6.43867347,23.3028 L6.43867347,36.4348 C6.43867347,38.1348 5.03758503,39.5868 3.33404762,39.5868 C1.67704082,39.5868 0.278537415,38.1348 0.278537415,36.4348 L0.278537415,36.3281333 L0.278537415,23.9708 L0.278537415,10.6334667 C0.278537415,4.94546667 4.79071429,0.345466667 10.2490136,0.345466667 C12.7590816,0.345466667 15.1670408,1.3268 17.0179252,3.08013333 C18.2251361,4.2748 18.2729592,6.28946667 17.1691497,7.5348" id="Fill-10" fill="#231F20" mask="url(#mask-4)"></path>
                </g>
                <path d="M133.78184,19.6360745 C130.156582,19.6360745 127.235283,22.5503162 127.235283,26.1911367 C127.235283,29.8240309 130.156582,32.74752 133.78184,32.74752 C137.411053,32.74752 140.325761,29.8240309 140.325761,26.1911367 C140.325761,22.5503162 137.411053,19.6360745 133.78184,19.6360745 M133.78184,39.047619 C126.729065,39.047619 120.952381,33.3076462 120.952381,26.1911367 C120.952381,19.1142588 126.729065,13.3333333 133.78184,13.3333333 C140.831978,13.3333333 146.611299,19.1142588 146.666667,26.2400157 C146.611299,33.3076462 140.831978,39.047619 133.78184,39.047619" id="Fill-13" fill="#231F20"></path>
                <path d="M174.285714,26.28955 L174.285714,35.967083 C174.285714,37.6605852 172.975898,39.047619 171.308386,39.047619 C169.592747,39.047619 168.279029,37.6605852 168.279029,35.967083 L168.279029,26.28955 C168.279029,22.6568425 165.656794,19.7348246 162.479156,19.7348246 C158.547105,19.7348246 156.531002,23.7294819 156.531002,27.2657576 L156.531002,35.967083 C156.531002,37.6605852 155.162654,39.047619 153.501645,39.047619 C151.836735,39.047619 150.47619,37.6605852 150.47619,35.967083 L150.47619,16.4059435 C150.47619,14.7124412 151.836735,13.3333333 153.501645,13.3333333 C154.815364,13.3333333 155.924871,14.2038622 156.328091,15.4297359 C158.139983,14.2527386 160.210715,13.5882834 162.479156,13.5882834 C168.986616,13.5882834 174.285714,19.2764429 174.285714,26.28955" id="Fill-15" fill="#231F20"></path>
                <g id="Group-19" transform="translate(176.190476, 13.333333)">
                    <mask id="mask-6" fill="white">
                        <use xlink:href="#path-5"></use>
                    </mask>
                    <g id="Clip-18"></g>
                    <path d="M8.0628,10.0673333 L19.0174667,10.0673333 C17.9828,8.10733333 16.0761333,6.966 13.7428,6.966 C11.3708,6.966 9.2948,8.15666667 8.0628,10.0673333 M23.1054667,15.29 L7.18013333,15.29 C7.90146667,18.234 10.5388,20.5113333 13.7428,20.5113333 C15.4014667,20.5113333 17.8308,19.8406667 19.1774667,18.55 C20.4188,17.362 22.3801333,17.362 23.5654667,18.5953333 C24.8121333,19.79 24.7561333,21.81 23.5201333,22.9953333 C20.6708,25.7353333 16.6921333,26.6673333 13.7428,26.6673333 C6.56013333,26.6673333 0.820133333,20.8726667 0.820133333,13.6886667 C0.820133333,6.60733333 6.56013333,0.712666667 13.7428,0.712666667 C14.5188,0.712666667 15.2494667,0.760666667 16.0214667,0.922 C19.5401333,1.59 22.5321333,3.76466667 24.3921333,6.86466667 C25.2201333,8.31666667 26.1574667,10.2233333 26.0468,11.93 C26.0468,12.3953333 25.8494667,12.9113333 25.6334667,13.4326667 C25.2201333,14.4126667 24.3428,15.29 23.1054667,15.29" id="Fill-17" fill="#231F20" mask="url(#mask-6)"></path>
                </g>
            </g>
        </g>
    </g>
</svg>