<svg xmlns="http://www.w3.org/2000/svg" width="33.777" height="34.13" viewBox="0 0 33.777 34.13"><defs><style>.a{fill:#fff;}</style></defs><g transform="translate(0)"><g transform="translate(0 0)"><path class="a" d="M463.681,875.52a1.779,1.779,0,0,0-.04-3.556A1.779,1.779,0,1,0,463.681,875.52Z" transform="translate(-447.749 -859.311)"/><path class="a" d="M264.044,646.833a2.81,2.81,0,0,0,2.949-4.037l2.167-2.821-2.587-1.581-2.174,2.922c-2.793-.154-3.976,2.372-3.023,4.062l-9.2,12.368-9.521.156,5.582-18.239,5.864.012,2.805,8.907,2.05-3.2-2.643-8.122-10.289.181-10.638,33.671,31.689.278-6.37-20.4,3.2-4.167C263.95,646.824,264,646.829,264.044,646.833Zm-12.668,20.126c-4.259,0-4.066-5.354-.068-5.354A2.69,2.69,0,1,1,251.376,666.958Zm4.179-9.268,2.947-3.837,1.143,3.77Z" transform="translate(-235.383 -637.257)"/><path class="a" d="M463.641,755.983a1.778,1.778,0,1,0,.04,3.556A1.778,1.778,0,0,0,463.641,755.983Z" transform="translate(-447.749 -749.582)"/></g></g></svg>