<svg xmlns="http://www.w3.org/2000/svg" width="48" height="48" viewBox="0 0 48 48"><defs><style>.a{fill:rgba(48,183,167,0.5);}.a,.b,.c{stroke:#30b7a7;}.c{stroke-linejoin:round;}.d{stroke:none;}.e{fill:none;}</style></defs><g class="a"><path class="d" d="M0,0H38A10,10,0,0,1,48,10V38A10,10,0,0,1,38,48H0a0,0,0,0,1,0,0V0A0,0,0,0,1,0,0Z"/><path class="e" d="M1,.5H38A9.5,9.5,0,0,1,47.5,10V38A9.5,9.5,0,0,1,38,47.5H1A.5.5,0,0,1,.5,47V1A.5.5,0,0,1,1,.5Z"/></g><g transform="translate(7.647 8.1)"><g class="b" transform="translate(0 23.055)"><ellipse class="d" cx="16.892" cy="4.873" rx="16.892" ry="4.873"/><ellipse class="e" cx="16.892" cy="4.873" rx="16.392" ry="4.373"/></g><path class="c" d="M188.761,239.292,181.113,211.7l7.647,5.552L196,211.514Z" transform="translate(-171.988 -211.514)"/></g></svg>