<svg xmlns="http://www.w3.org/2000/svg" width="98" height="98" viewBox="0 0 98 98"><defs><style>.a{fill:rgba(255,205,0,0.3);stroke:#ffcd00;stroke-width:5px;}.b{fill:#ffcd00;}.c{stroke:none;}.d{fill:none;}</style></defs><g class="a"><rect class="c" width="98" height="98"/><rect class="d" x="2.5" y="2.5" width="93" height="93"/></g><g transform="translate(19.468 19.469)"><path class="b" d="M8.288,22.473A25.673,25.673,0,0,0,.721,4.2,2.461,2.461,0,1,1,4.2.721a30.762,30.762,0,0,1,0,43.5,2.461,2.461,0,1,1-3.48-3.48A25.675,25.675,0,0,0,8.288,22.473Z" transform="translate(45.853 0)"/><path class="b" d="M4.718,3.55a2.461,2.461,0,0,1,3.48,0,20.918,20.918,0,0,1,0,29.581,2.461,2.461,0,1,1-3.48-3.48,16,16,0,0,0,0-22.621,2.461,2.461,0,0,1,0-3.48Z" transform="translate(34.904 4.133)"/><path class="b" d="M11.46,40.145a2.461,2.461,0,0,1,2.461,2.461,8.613,8.613,0,1,0,17.227,0A16.363,16.363,0,0,1,36.54,30.454a12.994,12.994,0,0,0,4.452-10,13.535,13.535,0,0,0-27.07,0,2.461,2.461,0,1,1-4.922,0,18.457,18.457,0,0,1,36.914,0,17.643,17.643,0,0,1-5.734,13.314,11.635,11.635,0,0,0-4.11,8.835,13.535,13.535,0,0,1-27.07,0A2.461,2.461,0,0,1,11.46,40.145Z" transform="translate(-8.999 2.922)"/><path class="b" d="M22.344,10.422a4.922,4.922,0,0,0-4.922,4.922,2.461,2.461,0,0,1-4.922,0,9.844,9.844,0,0,1,19.688,0,9.037,9.037,0,0,1-3.923,7.538c-1.309,1.1-1.614,1.437-1.614,2.306a2.461,2.461,0,0,1-4.922,0A7.506,7.506,0,0,1,25.112,19.1c1.344-1.122,2.153-1.8,2.153-3.76A4.922,4.922,0,0,0,22.344,10.422Z" transform="translate(-3.886 8.035)"/></g></svg>