<svg xmlns="http://www.w3.org/2000/svg" xmlns:xlink="http://www.w3.org/1999/xlink" width="116" height="78" viewBox="0 0 116 78"><defs><style>.a{fill:#fff;}.b{clip-path:url(#a);}.c{fill:none;stroke:#fff;stroke-linejoin:round;stroke-width:1.2px;}</style><clipPath id="a"><rect class="a" width="116" height="78" transform="translate(42 96)"/></clipPath></defs><g class="b" transform="translate(-42 -96)"><g transform="translate(-59.622 -237.709)"><path class="c" d="M198.751,409.333l8.392,4.755L160.405,441,112.1,413.407l46.907-26.594,3.746,2.123" transform="translate(0 -17.291)"/><path class="c" d="M112.1,396.115l.477-47.215,46.769-26.707-.338,47.329Z"/><path class="c" d="M123.768,379.922l.2-20.393,30.4-17.395-.243,20.551Z" transform="translate(-3.122 -5.336)"/><path class="c" d="M179.891,371.644l-3.746-2.123.338-47.329,47.692,27.253.106,47.351-8.392-4.755" transform="translate(-17.138)"/><path class="c" d="M175.255,393.544c.651-1.337,3.66,3.015,4.833,5.838l23.032,13.579s5.647-3.578,7.772-2.213-3.564,5.432-3.965,5.533-4.014.6-4.821.228-24.49-14.139-24.49-14.139S173.236,397.687,175.255,393.544Z" transform="translate(-16.757 -19.026)"/><path class="c" d="M198.689,399.489l18.463,10.63s4.34-3.089,6.464-1.723c.052.033,1.672,1.948.282,3.015-.945.725-10.209,6.342-10.209,6.342" transform="translate(-23.17 -20.683)"/><path class="c" d="M175.774,391.726l7.631-4.463a13.673,13.673,0,0,1,2.963,3.168" transform="translate(-17.038 -17.412)"/><path class="c" d="M186.686,385.487l-.018-5.186c0-.545.682-.589,1.529-.1l11.962,6.157a2.914,2.914,0,0,1,1.539,1.873l-.014,9.689" transform="translate(-19.953 -15.431)"/><path class="c" d="M186.774,379.693c0-.545,1.8-1.163,2.646-.673l10.779,5.548,1.182.609a6.275,6.275,0,0,1,1.475,1.5" transform="translate(-19.594 -15.402)"/><path class="c" d="M207.169,400.823v-9.674c0-.544.682-.589,1.529-.1l13.318,7.61a2.922,2.922,0,0,1,1.539,1.873l.023,5.117" transform="translate(-25.439 -18.334)"/><path class="c" d="M207.684,390.4c0-.544,2.09-1.163,2.938-.673l13.317,7.611a2.915,2.915,0,0,1,1.539,1.873v6.319" transform="translate(-25.577 -18.1)"/><line class="c" x1="4.429" y2="2.827" transform="translate(163.403 377.754)"/><line class="c" x1="7.699" y2="4.565" transform="translate(186.363 389.37)"/><path class="c" d="M187.558,392.16l-.255-1.1a8.5,8.5,0,0,0,2.238.4c.907-.028,4.305-.113,4.758-.028a4.64,4.64,0,0,0,1.525-.285,19.855,19.855,0,0,0-.562,3.768,13.133,13.133,0,0,0,.426,2.5,13.291,13.291,0,0,1-1.5.068c-.669-.052-6.631.151-6.631.151s.306-1.433.34-1.954A28.37,28.37,0,0,0,187.558,392.16Z" transform="translate(-20.123 -18.427)"/></g></g></svg>