<svg xmlns="http://www.w3.org/2000/svg" width="57.173" height="50.326" viewBox="0 0 57.173 50.326"><defs><style>.a,.b{fill:#fff;}.b{stroke:rgba(0,0,0,0);stroke-miterlimit:10;}</style></defs><g transform="matrix(0.985, 0.174, -0.174, 0.985, 6.583, -3.414)"><path class="a" d="M0,.046,1.3,3.4,2.775-.057Z" transform="translate(23.65 32.75)"/><path class="a" d="M.287,2.186A3.487,3.487,0,0,1,1.923,4.6q.012.078.021.157L2.42,2.365l5.842-.108L9.072,5.1h0a2.214,2.214,0,0,1,.681-2.475C11.011,1.64,11.127,1.4,11.1,1.363s-.581-1.58-.581-1.58L.267.176-.046,2C.068,2.055.179,2.118.287,2.186Z" transform="translate(22.434 12.18)"/><path class="a" d="M2.8,4.582,1.41-.029c-.04.024-.08.048-.12.074a2.628,2.628,0,0,0-.782,3.9q.046.057.1.112L-.028,5.531.649,7.9l.684,2.4L3.194,5.947Z" transform="translate(32.599 15.482)"/><path class="b" d="M20.94,26.663h0a1.134,1.134,0,0,1,.022-.378c.035-.054.071-.11.108-.165A2.732,2.732,0,0,0,20.94,26.663Zm.9-1.692h0a39.4,39.4,0,0,0-4.475-3.639c-1.465-1.047-3.141-2.151-4.981-3.279-1.637-1-3.1-1.844-4.045-2.371-1.022-.572-1.662-.909-1.669-.912a3.541,3.541,0,0,1-1.361.144,3.278,3.278,0,0,1-1.173-.326,2.86,2.86,0,0,1-.89-.681,2.523,2.523,0,0,1-.522-.939,2.438,2.438,0,0,1-.069-1.1c.008-.049.019-.1.032-.162L-.224,9.615,1.488,7.768c1.834.98,3.212,1.887,3.226,1.9l.077-.023.01,0a5.028,5.028,0,0,1,1.241-.263,1.533,1.533,0,0,1,.167.005,3.278,3.278,0,0,1,1.173.326,2.86,2.86,0,0,1,.89.681,2.523,2.523,0,0,1,.522.939,2.438,2.438,0,0,1,.069,1.1c-.008.047-.017.095-.027.142h0c.061.034,1.522.84,3.548,2.078,1.216.742,2.4,1.5,3.518,2.238,1.4.928,2.7,1.842,3.864,2.718L15.455,8.472a3.319,3.319,0,0,1-.642-.162,3.1,3.1,0,0,1-.6-.293,2.736,2.736,0,0,1-.823-.8,2.471,2.471,0,0,1-.32-2.059,2.772,2.772,0,0,1,.542-1.014c.034-.041.071-.083.116-.131l-1.28-3.3L15.505-.32l1.283,3.312a3.321,3.321,0,0,1,.63.163,3.094,3.094,0,0,1,.588.29,2.736,2.736,0,0,1,.823.8A2.471,2.471,0,0,1,19.15,6.3a2.771,2.771,0,0,1-.542,1.014c-.033.04-.067.079-.1.116L23.762,20.99,29.654,7.2c-.033-.037-.065-.074-.1-.112a2.494,2.494,0,0,1-.5-.993,2.454,2.454,0,0,1-.018-1.064,2.7,2.7,0,0,1,.434-1.01,3.115,3.115,0,0,1,.861-.83,3.441,3.441,0,0,1,.6-.314,3.554,3.554,0,0,1,.638-.189L33.019-.681,36.03.228,34.6,3.586c.042.046.078.088.11.126a2.494,2.494,0,0,1,.5.993,2.454,2.454,0,0,1,.018,1.064,2.7,2.7,0,0,1-.434,1.01,3.115,3.115,0,0,1-.861.83,3.45,3.45,0,0,1-.613.318,3.547,3.547,0,0,1-.65.189L27.729,19.662c1.225-.947,2.595-1.942,4.072-2.958,1.182-.813,2.436-1.641,3.726-2.46,2.188-1.391,3.758-2.3,3.773-2.305-.008-.047-.015-.094-.021-.141a2.492,2.492,0,0,1,.12-1.1,2.822,2.822,0,0,1,.566-.961,3.243,3.243,0,0,1,.922-.719,3.52,3.52,0,0,1,1.189-.374,1.554,1.554,0,0,1,.168-.012,4.79,4.79,0,0,1,1.23.212l.086.023c.015-.01.371-.251.96-.624.54-.341,1.387-.862,2.357-1.407L48.505,8.61l-3.012,2.214c.011.058.019.111.025.16a2.492,2.492,0,0,1-.12,1.1,2.822,2.822,0,0,1-.566.961,3.244,3.244,0,0,1-.923.719,3.52,3.52,0,0,1-1.189.374,3.6,3.6,0,0,1-.389.029,3.423,3.423,0,0,1-.967-.117c-.012.006-1.223.678-3,1.748-1.043.627-2.074,1.266-3.063,1.9-1.236.79-2.409,1.572-3.488,2.325-.278.194-.552.387-.812.573h0l-.4.29h0l-.4.292h0l-.4.294h0l-.392.295,0,0-.388.3h0l-.383.3h0c-.386.3-.76.606-1.111.9h0c-.12.1-.239.2-.355.3h0c-.234.2-.464.4-.683.6h0c-.109.1-.219.2-.327.3h0l-.236.221A2.676,2.676,0,0,0,25.1,24.3a3.61,3.61,0,0,0-1.064-.128,3.739,3.739,0,0,0-1.253.232,2.986,2.986,0,0,0-.939.567Z" transform="translate(3.549 12.338)"/><path class="b" d="M31.361,14.143h0c-.027,0-2.725-.172-6.589-.316-2.268-.085-4.487-.143-6.595-.175-2.635-.039-5.1-.036-7.335.01a75.531,75.531,0,0,0-11.049.853l-.017,0a.077.077,0,0,1-.065-.03c-.07-.088-.056-.37.044-.838.091-.426.253-1.015.484-1.751.388-1.24.972-2.915,1.736-4.979C3.275,3.413,4.669-.062,4.683-.1,5.2.226,5.7.546,6.169.856,7.967,2.033,9.47,3.2,10.8,4.233c.436.339.847.659,1.245.961.171.13.655.464,1.293.893a2.725,2.725,0,0,0-.389,1.406,2.445,2.445,0,0,0,.41,1.363,2.363,2.363,0,0,0,.428.478,2.59,2.59,0,0,0,.582.372A3.661,3.661,0,0,0,16,10.015h.2l.021,0h0l.021,0,.022,0h0a3.183,3.183,0,0,0,1.392-.437h0l0,0h0l.007,0h0l0,0h0l.006,0h0l0,0h0l0,0,.007,0h0l0,0h0a2.7,2.7,0,0,0,.776-.753,2.777,2.777,0,0,0,.451-1.955,2.533,2.533,0,0,0-.334-.945.2.2,0,0,0-.016-.027c.085-.078.316-.266.539-.447h0c.186-.151.362-.294.441-.363A61.752,61.752,0,0,1,25.653.454c.473-.319.97-.649,1.478-.979,0,0,.076.548.232,1.431.144.819.389,2.109.738,3.608.392,1.685.834,3.285,1.311,4.756a35.722,35.722,0,0,0,1.949,4.874Z" transform="translate(11.521 31.87)"/><path class="a" d="M-.081,4.926.641-.009,1.737,3l3.512.875Z" transform="translate(2.965 26.731) rotate(-3)"/><path class="a" d="M-.139,8.437,1.1-.016,2.441,5.718l6.55.916Z" transform="translate(-0.641 27.559) rotate(-3)"/><path class="a" d="M6.327,4.841,5.665-.117,4.206,2.965l-4.3,1.024Z" transform="translate(45.376 25.942)"/><path class="a" d="M10.838,8.292,9.7-.2,7.827,5.647-.159,6.833Z" transform="translate(45.176 26.537)"/><path class="a" d="M3.165-.065-.087,3.752,3.121,2.468,6.607,4.263Z" transform="translate(25.144 4.786)"/><path class="a" d="M5.421-.112-.15,6.426,5.372,3.472,11.317,7.3Z" transform="translate(23.15 -0.478)"/></g></svg>