<svg xmlns="http://www.w3.org/2000/svg" width="36" height="32" viewBox="0 0 36 32"><defs><style>.a{fill:#565656;fill-rule:evenodd;}</style></defs><g transform="translate(-128 -269)"><g transform="translate(113 209)"><g transform="translate(0 53)"><g transform="translate(15 7)"><path class="a" d="M20.419,11.126l1.136,11.148.052.119c.5,1.148,1.245,1.319,1.646,1.319s1.148-.171,1.646-1.319l.048-.11L26.1,13.149l1.149,5.888.036.084c.5,1.148,1.245,1.319,1.646,1.319s1.148-.171,1.646-1.319l1.162-2.681c.01-.023.02-.045.03-.066q.015.031.03.066l.855,1.973.045.089a2.4,2.4,0,0,0,.58.738,1.716,1.716,0,0,0,.828.275l.049.005H36v9.487A3,3,0,0,1,32.993,32H3.007A3,3,0,0,1,0,29.007V16.071l3.233.01.019,0,.03.042h0l1.3,3c.5,1.148,1.245,1.319,1.646,1.319s1.148-.171,1.646-1.32l.036-.084,1.147-5.879,1.15,10.211.05.115c.5,1.148,1.245,1.319,1.646,1.319s1.148-.171,1.646-1.32l.053-.123,1.135-12.214,1.139,14.391.055.128c.5,1.148,1.245,1.319,1.646,1.319s1.148-.171,1.646-1.319l.056-.128ZM13.157,0l4.155,4.132,15.72-.083A2.96,2.96,0,0,1,36,7h0V17.81H34.316c-.023-.035-.047-.073-.07-.112l-.834-1.924c-.5-1.148-1.245-1.319-1.646-1.319s-1.148.171-1.646,1.319l-1.162,2.681-.014.032h0l-.015.028L27.78,12.627l-.008-.042-.036-.084c-.5-1.148-1.245-1.319-1.646-1.319s-1.148.171-1.646,1.319l-.048.11-1.141,9.056L22.112,10.439l-.052-.119C21.562,9.171,20.815,9,20.414,9s-1.148.171-1.646,1.319l-.056.128L17.576,24.8,16.44,10.448l-.056-.128C15.887,9.172,15.14,9,14.739,9s-1.148.171-1.646,1.319l-.053.123L11.9,22.724,10.759,12.617l-.05-.115c-.5-1.148-1.245-1.319-1.646-1.319s-1.148.171-1.646,1.319l-.036.084L6.224,18.516q-.014-.028-.028-.061l-1.36-3.137L4.8,15.256a2.353,2.353,0,0,0-.513-.6,1.8,1.8,0,0,0-.972-.281L0,14.362V2.951A2.958,2.958,0,0,1,2.793.005L2.968,0Z"/></g></g></g></g></svg>