<svg xmlns="http://www.w3.org/2000/svg" width="48" height="48" viewBox="0 0 48 48"><defs><style>.a{fill:rgba(48,183,167,0.5);stroke:#30b7a7;}.b,.d{stroke:none;}.c{fill:none;}.d{fill:#30b7a7;}</style></defs><g class="a"><rect class="b" width="48" height="48" rx="10"/><rect class="c" x="0.5" y="0.5" width="47" height="47" rx="9.5"/></g><g transform="translate(4.727 5.505)"><g><path class="b" d="M 32.43136596679688 19.99360466003418 C 31.03799629211426 19.99360466003418 29.90440559387207 18.86001586914062 29.90440559387207 17.46665573120117 L 29.90440559387207 9.453445434570312 L 8.607915878295898 9.453445434570312 L 8.607915878295898 10.97877502441406 C 8.607605934143066 11.79821491241455 8.128005981445312 12.55206489562988 7.386096000671387 12.89949512481689 C 7.102357864379883 13.03236103057861 6.79975414276123 13.09974479675293 6.486745357513428 13.09974479675293 C 6.486688137054443 13.09974479675293 6.486663341522217 13.09974479675293 6.486606121063232 13.09974479675293 C 5.99129581451416 13.09973526000977 5.508985996246338 12.92520523071289 5.128545761108398 12.60832500457764 L 0.2637659311294556 8.55433464050293 C -0.2216540724039078 8.150184631347656 -0.5001540780067444 7.555914878845215 -0.5001540780067444 6.924055099487305 C -0.5001540780067444 6.292194843292236 -0.2216540724039078 5.697925090789795 0.263935923576355 5.29363489151001 L 5.128456115722656 1.239865064620972 C 5.509026050567627 0.9228850603103638 5.991325855255127 0.748365044593811 6.486626148223877 0.748365044593811 C 6.800076007843018 0.748365044593811 7.103025913238525 0.8158950209617615 7.387045860290527 0.9490750432014465 C 8.129205703735352 1.297065019607544 8.608426094055176 2.051574945449829 8.607915878295898 2.871274948120117 L 8.607915878295898 4.399535179138184 L 30.80980682373047 4.399535179138184 C 33.09547424316406 4.401565074920654 34.95629501342773 6.26238489151001 34.95832443237305 8.547615051269531 L 34.95832443237305 17.46665573120117 C 34.95832443237305 18.86001586914062 33.82473754882812 19.99360466003418 32.43136596679688 19.99360466003418 Z"/><path class="d" d="M 32.43136596679688 19.49360466003418 C 33.55082702636719 19.49360466003418 34.45832443237305 18.58611488342285 34.45832443237305 17.46665573120117 L 34.45832443237305 8.548054695129395 C 34.45653533935547 6.533774852752686 32.8240852355957 4.901325225830078 30.80980682373047 4.899535179138184 L 8.5133056640625 4.899535179138184 C 8.405506134033203 4.899535179138184 8.302145957946777 4.856605052947998 8.226065635681152 4.780224800109863 C 8.149995803833008 4.703855037689209 8.107485771179199 4.600325107574463 8.107915878295898 4.492525100708008 L 8.107915878295898 2.870965003967285 C 8.108305931091309 2.241655111312866 7.744555950164795 1.668945074081421 7.174776077270508 1.401775002479553 C 6.955161571502686 1.298797845840454 6.720127582550049 1.248365879058838 6.486621379852295 1.248365879058838 C 6.114305019378662 1.248365879058838 5.745718002319336 1.376459836959839 5.448545932769775 1.623975038528442 L 0.583855926990509 5.677885055541992 C 0.2138259261846542 5.985965251922607 -0.0001540777593618259 6.442564964294434 -0.0001540777593618259 6.924055099487305 C -0.0001540777593618259 7.405555248260498 0.2138259261846542 7.862144947052002 0.583855926990509 8.170225143432617 L 5.448545932769775 12.22413539886475 C 5.745665073394775 12.47161293029785 6.114351749420166 12.59973526000977 6.486622333526611 12.59974956512451 C 6.719919681549072 12.59975910186768 6.954586029052734 12.5494556427002 7.174046039581299 12.44668483734131 C 7.743695735931396 12.17992496490479 8.107675552368164 11.60779476165771 8.107915878295898 10.97877502441406 L 8.107915878295898 9.35721492767334 C 8.108805656433105 9.133955001831055 8.290045738220215 8.953445434570312 8.5133056640625 8.953445434570312 L 29.99901580810547 8.953445434570312 C 30.2229061126709 8.953445434570312 30.40440559387207 9.134944915771484 30.40440559387207 9.358835220336914 L 30.40440559387207 17.46665573120117 C 30.40440559387207 18.58611488342285 31.3119068145752 19.49360466003418 32.43136596679688 19.49360466003418 M 32.43136596679688 20.49360466003418 C 30.76229667663574 20.49360466003418 29.40440559387207 19.1357250213623 29.40440559387207 17.46665573120117 L 29.40440559387207 9.953445434570312 L 9.107909202575684 9.953445434570312 L 9.107915878295898 10.97877502441406 C 9.107525825500488 11.99147510528564 8.51490592956543 12.92299461364746 7.598135948181152 13.35230541229248 C 7.24751615524292 13.51649475097656 6.873575687408447 13.59974479675293 6.486695766448975 13.59974479675293 C 5.874616146087646 13.59972476959229 5.278656005859375 13.38407516479492 4.80854606628418 12.99250507354736 L -0.0563240759074688 8.938445091247559 C -0.656014084815979 8.439154624938965 -1.0001540184021 7.704834938049316 -1.0001540184021 6.924055099487305 C -1.0001540184021 6.143275260925293 -0.656014084815979 5.408955097198486 -0.05598407611250877 4.909375190734863 L 4.808365821838379 0.8557550311088562 C 5.27867603302002 0.4640150368213654 5.874626159667969 0.2483650296926498 6.486626148223877 0.2483650296926498 C 6.874015808105469 0.2483650296926498 7.248385906219482 0.331805020570755 7.59933614730835 0.4963750243186951 C 8.516386032104492 0.9263750314712524 9.108546257019043 1.858705043792725 9.107915878295898 2.871585130691528 L 9.107915878295898 3.899534940719604 L 30.80980682373047 3.899534940719604 C 33.37113571166992 3.901814937591553 35.45604705810547 5.986724853515625 35.45832443237305 8.547164916992188 L 35.45832443237305 17.46665573120117 C 35.45832443237305 19.1357250213623 34.10043716430664 20.49360466003418 32.43136596679688 20.49360466003418 Z"/></g><g transform="translate(1.709 6.072)"><path class="b" d="M 29.91095161437988 30.54046630859375 C 29.91091918945312 30.54046630859375 29.91089820861816 30.54046630859375 29.91086769104004 30.54046630859375 C 29.60335731506348 30.54044532775879 29.3056468963623 30.4753360748291 29.02598762512207 30.34694480895996 C 28.27581787109375 30.00252532958984 27.79051780700684 29.24661636352539 27.78962707519531 28.42116546630859 L 27.78962707519531 26.0828857421875 L 6.39851713180542 26.0828857421875 C 4.112747192382812 26.0798454284668 2.252027034759521 24.21829605102539 2.249997138977051 21.93318557739258 L 2.250007152557373 13.04495525360107 C 2.250007152557373 11.65158557891846 3.383597135543823 10.51799583435059 4.776957035064697 10.51799583435059 C 6.17031717300415 10.51799583435059 7.303906917572021 11.65158557891846 7.303906917572021 13.04495525360107 L 7.303906917572021 21.0273551940918 L 27.78962707519531 21.0273551940918 L 27.78962707519531 18.68961524963379 C 27.78969764709473 17.86367607116699 28.27460670471191 17.10710525512695 29.02501678466797 16.76212501525879 C 29.30497741699219 16.63341522216797 29.60303688049316 16.56815528869629 29.91089630126953 16.56815528869629 C 30.41738700866699 16.56815528869629 30.90798759460449 16.74969482421875 31.29232788085938 17.07931518554688 L 36.96769714355469 21.94391632080078 L 37.14229583740234 22.09357643127441 L 37.14229583740234 22.1136360168457 C 37.50375747680664 22.50370025634766 37.70713806152344 23.01707649230957 37.70713806152344 23.55512619018555 C 37.70713806152344 24.17429542541504 37.43777847290039 24.76082611083984 36.96813583374023 25.16432571411133 L 31.29222679138184 30.02939605712891 C 30.9079704284668 30.35893630981445 30.41738891601562 30.54046630859375 29.91095161437988 30.54046630859375 Z"/><path class="d" d="M 29.91089248657227 30.04046249389648 C 30.29105949401855 30.04047966003418 30.66703033447266 29.90687561035156 30.96682739257812 29.64976501464844 L 36.64229583740234 24.78507614135742 C 37.00085830688477 24.47701644897461 37.20713806152344 24.02783584594727 37.20713806152344 23.55512619018555 C 37.20713806152344 23.08240509033203 37.00085830688477 22.63321495056152 36.64229583740234 22.32516479492188 L 36.64229583740234 22.32354545593262 L 30.96682739257812 17.45885467529297 C 30.66706848144531 17.20177268981934 30.29100227355957 17.06815910339355 29.91089820861816 17.06815910339355 C 29.68140602111816 17.06815910339355 29.45049667358398 17.11682510375977 29.23386764526367 17.21641540527344 C 28.65843772888184 17.48095512390137 28.28967666625977 18.05629539489746 28.28962707519531 18.68961524963379 L 28.28962707519531 21.1219654083252 C 28.28962707519531 21.34585571289062 28.10812759399414 21.5273551940918 27.88423728942871 21.5273551940918 L 7.209297180175781 21.5273551940918 C 6.98540735244751 21.5273551940918 6.803906917572021 21.34585571289062 6.803906917572021 21.1219654083252 L 6.803906917572021 13.04495525360107 C 6.803906917572021 11.92549514770508 5.896417140960693 11.01799583435059 4.776957035064697 11.01799583435059 C 3.65749716758728 11.01799583435059 2.750007152557373 11.92549514770508 2.750007152557373 13.04495525360107 L 2.749997138977051 21.9327449798584 C 2.751787185668945 23.94728469848633 4.383976936340332 25.5802059173584 6.39851713180542 25.5828857421875 L 27.88423728942871 25.5828857421875 C 28.10812759399414 25.5828857421875 28.28962707519531 25.76438522338867 28.28962707519531 25.9882755279541 L 28.28962707519531 28.42062568664551 C 28.29030799865723 29.05365562438965 28.6593074798584 29.62841606140137 29.2346076965332 29.89254570007324 C 29.45097732543945 29.99188423156738 29.68172073364258 30.04045104980469 29.91089248657227 30.04046249389648 M 29.91093635559082 31.04046630859375 L 29.91089630126953 31.04046630859375 C 29.53084754943848 31.04044532775879 29.16292762756348 30.95999526977539 28.81735801696777 30.80133628845215 C 27.8903980255127 30.37575531005859 27.29072761535645 29.44168472290039 27.28962707519531 28.42169570922852 L 27.28962707519531 26.5828857421875 L 6.39851713180542 26.5828857421875 C 3.836997032165527 26.57947540283203 1.752277135848999 24.49383544921875 1.749997138977051 21.93363571166992 L 1.750007152557373 13.04495525360107 C 1.750007152557373 11.37588596343994 3.107887029647827 10.01799583435059 4.776957035064697 10.01799583435059 C 6.446027278900146 10.01799583435059 7.803906917572021 11.37588596343994 7.803906917572021 13.04495525360107 L 7.803906917572021 20.5273551940918 L 27.28962707519531 20.5273551940918 L 27.28962707519531 18.68961524963379 C 27.28970718383789 17.66898536682129 27.88890647888184 16.73411560058594 28.8161678314209 16.30782508850098 C 29.16210746765137 16.14879608154297 29.53042793273926 16.06815528869629 29.91089630126953 16.06815528869629 C 30.53669738769531 16.06815528869629 31.14289665222168 16.29246520996094 31.61782646179199 16.69977569580078 L 37.29308700561523 21.56428527832031 L 37.64229583740234 21.86361503601074 L 37.64229583740234 21.92931747436523 C 38.00542449951172 22.38835906982422 38.20713806152344 22.95953178405762 38.20713806152344 23.55512619018555 C 38.20713806152344 24.32021522521973 37.87429809570312 25.04497528076172 37.29396820068359 25.54357528686523 L 31.61761665344238 30.40902519226074 C 31.14288711547852 30.8161563873291 30.53670692443848 31.04046630859375 29.91093635559082 31.04046630859375 Z"/></g></g></svg>