<svg xmlns="http://www.w3.org/2000/svg" xmlns:xlink="http://www.w3.org/1999/xlink" width="116" height="78" viewBox="0 0 116 78"><defs><style>.a{fill:#fff;}.b{opacity:0.375;clip-path:url(#a);}.c{fill:none;stroke:#fff;stroke-linejoin:round;stroke-miterlimit:10;stroke-width:1.2px;}</style><clipPath id="a"><rect class="a" width="116" height="78" transform="translate(163 96)"/></clipPath></defs><g class="b" transform="translate(-163 -96)"><g transform="translate(-86.609 -242.94)"><g transform="translate(272.269 337.477)"><path class="c" d="M278.472,350.676a34.519,34.519,0,0,1,6.029,16.215l4.365.034c0-10.186,8.939-22.174,8.939-22.174" transform="translate(-278.472 -344.751)"/><path class="c" d="M366.735,350.676a34.519,34.519,0,0,0-6.029,16.215l-4.365.034c0-10.186-8.939-22.174-8.939-22.174" transform="translate(-296.054 -344.751)"/><rect class="c" width="6.756" height="2.651" transform="translate(4.989 22.244)"/><rect class="c" width="6.756" height="1.559" transform="translate(4.989 70.569)"/><rect class="c" width="4.851" height="45.596" transform="translate(5.925 24.912)"/><rect class="c" width="6.756" height="2.651" transform="translate(60.01 22.244)"/><rect class="c" width="6.756" height="1.559" transform="translate(60.01 70.569)"/><rect class="c" width="4.851" height="45.596" transform="translate(60.945 24.912)"/><path class="c" d="M342.411,367.644s-6.827-19.969-25.016-19.905c-18.19-.063-25.017,19.905-25.017,19.905" transform="translate(-282.019 -345.513)"/></g><g transform="translate(254.153 316.235)"><path class="c" d="M254.153,325.2a52.207,52.207,0,0,1,9.119,24.528l6.6.052c0-15.408,13.521-33.541,13.521-33.541" transform="translate(-254.153 -316.235)"/><path class="c" d="M387.661,325.2a52.21,52.21,0,0,0-9.119,24.528l-6.6.052c0-15.408-13.521-33.541-13.521-33.541" transform="translate(-280.748 -316.235)"/><rect class="c" width="10.22" height="4.009" transform="translate(7.547 33.646)"/><rect class="c" width="10.22" height="2.358" transform="translate(7.547 106.743)"/><rect class="c" width="7.337" height="68.969" transform="translate(8.962 37.681)"/><rect class="c" width="10.22" height="4.009" transform="translate(90.771 33.646)"/><rect class="c" width="10.22" height="2.358" transform="translate(90.771 106.743)"/><rect class="c" width="7.337" height="68.969" transform="translate(92.186 37.681)"/><path class="c" d="M350.868,350.863s-10.325-30.2-37.839-30.108c-27.514-.1-37.84,30.108-37.84,30.108" transform="translate(-259.518 -317.388)"/></g><g transform="translate(284.846 340.77)"><path class="c" d="M295.356,363.341a30.577,30.577,0,0,1,2.531,8.628l3.012.024c0-13.253,17.213-22.822,17.213-22.822" transform="translate(-295.356 -349.171)"/><path class="c" d="M348.571,363.341a28.733,28.733,0,0,0-2.441,8.628l-3.012.024c0-13.253-17.212-22.822-17.212-22.822" transform="translate(-303.148 -349.171)"/><rect class="c" width="4.662" height="1.829" transform="translate(1.814 22.87)"/><rect class="c" width="4.662" height="1.076" transform="translate(1.814 59.835)"/><rect class="c" width="3.347" height="35.083" transform="translate(2.46 24.71)"/><rect class="c" width="4.662" height="1.829" transform="translate(39.778 22.87)"/><rect class="c" width="4.662" height="1.076" transform="translate(39.778 59.835)"/><rect class="c" width="3.347" height="35.083" transform="translate(40.424 24.71)"/><path class="c" d="M337.288,375.064s-4.71-13.778-17.262-13.734c-12.551-.044-17.261,13.734-17.261,13.734" transform="translate(-297.246 -352.272)"/></g><g transform="translate(291.957 349.751)"><path class="c" d="M304.9,371.513a16.423,16.423,0,0,1,1.56,5.51l2.087.016c0-9.183,11.926-15.813,11.926-15.813" transform="translate(-304.901 -361.227)"/><path class="c" d="M341.381,371.513a16.424,16.424,0,0,0-1.56,5.51l-2.087.016c0-9.183-11.927-15.813-11.927-15.813" transform="translate(-310.234 -361.227)"/><rect class="c" width="3.23" height="1.267" transform="translate(1.063 15.846)"/><rect class="c" width="3.23" height="0.745" transform="translate(1.063 48.164)"/><rect class="c" width="2.319" height="31.013" transform="translate(1.51 17.122)"/><rect class="c" width="3.23" height="1.267" transform="translate(27.368 15.846)"/><rect class="c" width="3.23" height="0.745" transform="translate(27.368 48.164)"/><rect class="c" width="2.319" height="31.013" transform="translate(27.815 17.122)"/><path class="c" d="M333.694,379.168s-3.264-9.546-11.96-9.516c-8.7-.031-11.961,9.516-11.961,9.516" transform="translate(-306.144 -363.376)"/></g></g></g></svg>