<svg xmlns="http://www.w3.org/2000/svg" width="48" height="48" viewBox="0 0 48 48"><defs><style>.a{fill:rgba(200,20,229,0.3);stroke:#c814e5;}.b{fill:rgba(0,0,0,0.7);}.c,.e{stroke:none;}.d{fill:none;}.e{fill:#c814e5;}</style></defs><g class="a"><rect class="c" width="48" height="48" rx="10"/><rect class="d" x="0.5" y="0.5" width="47" height="47" rx="9.5"/></g><g class="b" transform="translate(11.503 36.251)"><path class="c" d="M 12.60518932342529 3.034633874893188 C 11.05050945281982 3.034633874893188 9.520138740539551 2.84075403213501 8.056578636169434 2.4583740234375 C 6.573389053344727 2.070873975753784 5.243339061737061 1.452773928642273 4.103369235992432 0.6212739944458008 C 2.951369047164917 -0.2190160304307938 2.024178981781006 -1.303766012191772 1.347568988800049 -2.602855920791626 C 0.668129026889801 -3.907396078109741 0.3372590243816376 -5.469006061553955 0.3641590178012848 -7.244316101074219 L 0.3716190159320831 -7.736735820770264 L 0.8640990257263184 -7.736735820770264 L 6.734649181365967 -7.736735820770264 L 7.234649181365967 -7.736735820770264 L 7.234649181365967 -7.236735820770264 C 7.234649181365967 -6.395246028900146 7.384599208831787 -5.680205821990967 7.680338859558105 -5.111465930938721 C 7.977128982543945 -4.540726184844971 8.37455940246582 -4.073306083679199 8.861589431762695 -3.722186088562012 C 9.361998558044434 -3.361426115036011 9.961958885192871 -3.088966131210327 10.64478874206543 -2.912366151809692 C 11.34713935852051 -2.730726003646851 12.08467864990234 -2.638626098632812 12.83691883087158 -2.638626098632812 C 13.35103893280029 -2.638626098632812 13.91150856018066 -2.682346105575562 14.5027494430542 -2.768576145172119 C 15.06826877593994 -2.851046085357666 15.60495948791504 -3.011886119842529 16.09792900085449 -3.246636152267456 C 16.56729888916016 -3.47014594078064 16.96306991577148 -3.780696153640747 17.27422904968262 -4.169655799865723 C 17.5643482208252 -4.532296180725098 17.70537948608398 -4.992306232452393 17.70537948608398 -5.575985908508301 C 17.70537948608398 -6.187585830688477 17.52115821838379 -6.664135932922363 17.14218902587891 -7.03286600112915 C 16.71518898010254 -7.448326110839844 16.13979911804199 -7.802536010742188 15.43199920654297 -8.08564567565918 C 14.68596935272217 -8.384056091308594 13.82605934143066 -8.649435997009277 12.87617874145508 -8.874405860900879 C 11.89786338806152 -9.106108665466309 10.89285469055176 -9.367099761962891 9.889084815979004 -9.650108337402344 C 8.847086906433105 -9.910903930664062 7.816867828369141 -10.23466110229492 6.826738834381104 -10.61247634887695 C 5.807709217071533 -11.00131607055664 4.88171911239624 -11.51226615905762 4.074489116668701 -12.13114643096924 C 3.248898983001709 -12.7640962600708 2.572778940200806 -13.56527614593506 2.064888954162598 -14.51243591308594 C 1.551398992538452 -15.47003650665283 1.29102897644043 -16.63455581665039 1.29102897644043 -17.97364616394043 C 1.29102897644043 -19.47245597839355 1.619119048118591 -20.7978458404541 2.266179084777832 -21.91298675537109 C 2.904558897018433 -23.01317596435547 3.751779079437256 -23.94299697875977 4.784298896789551 -24.67662620544434 C 5.806408882141113 -25.40287590026855 6.977388858795166 -25.94788551330566 8.264678955078125 -26.2965259552002 C 9.537439346313477 -26.64122581481934 10.8288688659668 -26.81600570678711 12.10309886932373 -26.81600570678711 C 13.57796859741211 -26.81600570678711 15.01453876495361 -26.64882659912109 16.37290954589844 -26.31911659240723 C 17.75350952148438 -25.98401641845703 18.9992790222168 -25.43208694458008 20.07560920715332 -24.67865562438965 C 21.16502952575684 -23.91606521606445 22.04170989990234 -22.92911529541016 22.68128967285156 -21.74521636962891 C 23.32341957092285 -20.55660629272461 23.64899826049805 -19.10574531555176 23.64899826049805 -17.43294525146484 L 23.64899826049805 -16.93294525146484 L 23.14899826049805 -16.93294525146484 L 17.2784481048584 -16.93294525146484 L 16.80872917175293 -16.93294525146484 L 16.7794189453125 -17.40175628662109 C 16.73277854919434 -18.14805603027344 16.57769966125488 -18.76643562316895 16.3184986114502 -19.23974609375 C 16.06144905090332 -19.70914649963379 15.73224925994873 -20.06632614135742 15.31207942962646 -20.33169555664062 C 14.87650871276855 -20.60679626464844 14.3674488067627 -20.80510520935059 13.79904937744141 -20.92110633850098 C 13.20396900177002 -21.04254531860352 12.54240894317627 -21.1041259765625 11.83274936676025 -21.1041259765625 C 11.38038921356201 -21.1041259765625 10.9212589263916 -21.05575561523438 10.46810913085938 -20.96035575866699 C 10.04117870330811 -20.87047576904297 9.649418830871582 -20.71180534362793 9.303729057312012 -20.4887752532959 C 8.964439392089844 -20.2698860168457 8.681859016418457 -19.99307632446289 8.463809013366699 -19.666015625 C 8.263269424438477 -19.36520576477051 8.161579132080078 -18.96473693847656 8.161579132080078 -18.47573661804199 C 8.161579132080078 -18.03146553039551 8.240578651428223 -17.67781639099121 8.396379470825195 -17.42462539672852 C 8.501568794250488 -17.25369644165039 8.760918617248535 -16.98723602294922 9.39910888671875 -16.68849563598633 C 9.974458694458008 -16.4191951751709 10.79086875915527 -16.14357566833496 11.82567882537842 -15.86928558349609 C 12.88493156433105 -15.58851623535156 14.28889274597168 -15.22619152069092 15.99876022338867 -14.79230880737305 C 16.52509307861328 -14.68632888793945 17.25665855407715 -14.49516105651855 18.17338943481445 -14.2240161895752 C 19.13027954101562 -13.94098567962646 20.09104919433594 -13.48494625091553 21.02901840209961 -12.86855602264404 C 21.98284912109375 -12.2417459487915 22.81686973571777 -11.39490604400635 23.50791931152344 -10.35155582427979 C 24.21659851074219 -9.281596183776855 24.57592964172363 -7.908756256103516 24.57592964172363 -6.271185874938965 C 24.57592964172363 -4.943876266479492 24.31407928466797 -3.692055940628052 23.79765892028809 -2.550506114959717 C 23.27849960327148 -1.4028559923172 22.49718856811523 -0.3995960354804993 21.47544860839844 0.4314139783382416 C 20.46416854858398 1.253924012184143 19.19881820678711 1.901493906974792 17.71454811096191 2.356143951416016 C 16.24470901489258 2.80635404586792 14.52566909790039 3.034633874893188 12.60518932342529 3.034633874893188 Z"/><path class="e" d="M 12.60518932342529 2.534633874893188 C 14.48478889465332 2.534633874893188 16.13909912109375 2.315773963928223 17.5681095123291 1.878063917160034 C 18.99712944030762 1.440343976020813 20.19441986083984 0.828823983669281 21.15995979309082 0.04351396486163139 C 22.12550926208496 -0.7417960166931152 22.8528995513916 -1.675166010856628 23.34210968017578 -2.756586074829102 C 23.83131980895996 -3.837996006011963 24.07592964172363 -5.009536266326904 24.07592964172363 -6.271185874938965 C 24.07592964172363 -7.816066265106201 23.74763870239258 -9.084156036376953 23.0910587310791 -10.07545566558838 C 22.43448829650879 -11.06675624847412 21.65560913085938 -11.85849571228027 20.75442886352539 -12.45070648193359 C 19.85324859619141 -13.0429162979126 18.94563865661621 -13.47418594360352 18.03157806396484 -13.74454593658447 C 17.11752891540527 -14.01489639282227 16.40301895141602 -14.20156574249268 15.88805866241455 -14.30455589294434 C 14.16293907165527 -14.74227619171143 12.7661190032959 -15.10274600982666 11.69756889343262 -15.38597583770752 C 10.62902927398682 -15.66920566558838 9.792219161987305 -15.95243644714355 9.187138557434082 -16.23565673828125 C 8.582069396972656 -16.51888656616211 8.176528930664062 -16.82786560058594 7.9705491065979 -17.1625862121582 C 7.76456880569458 -17.49731636047363 7.661579132080078 -17.93502616882324 7.661579132080078 -18.47573661804199 C 7.661579132080078 -19.06794548034668 7.790308952331543 -19.55715560913086 8.047788619995117 -19.9433765411377 C 8.305278778076172 -20.3295955657959 8.633559226989746 -20.65144538879395 9.032658576965332 -20.90892601013184 C 9.43174934387207 -21.16640663146973 9.875899314880371 -21.34663581848145 10.36510944366455 -21.44963645935059 C 10.85432910919189 -21.55262565612793 11.34353923797607 -21.6041259765625 11.83274936676025 -21.6041259765625 C 12.57943916320801 -21.6041259765625 13.26819896697998 -21.53974533081055 13.89902877807617 -21.41100692749023 C 14.5298490524292 -21.28226661682129 15.08986854553223 -21.06341552734375 15.57907867431641 -20.75443649291992 C 16.06829833984375 -20.44545555114746 16.4609489440918 -20.02061653137207 16.75704956054688 -19.47990608215332 C 17.05315971374512 -18.93919563293457 17.22694969177246 -18.25687599182129 17.2784481048584 -17.43294525146484 L 23.14899826049805 -17.43294525146484 C 23.14899826049805 -19.02932548522949 22.84645843505859 -20.38752555847168 22.24137878417969 -21.50756645202637 C 21.63629913330078 -22.62759590148926 20.81879806518555 -23.548095703125 19.78887939453125 -24.26903533935547 C 18.75896835327148 -24.98997688293457 17.58098983764648 -25.51137542724609 16.25496864318848 -25.83322525024414 C 14.9289493560791 -26.15508651733398 13.54498863220215 -26.31600570678711 12.10309886932373 -26.31600570678711 C 10.8671989440918 -26.31600570678711 9.631299018859863 -26.14863586425781 8.395388603210449 -25.81391525268555 C 7.159489154815674 -25.47919654846191 6.052319049835205 -24.96423530578613 5.073898792266846 -24.26903533935547 C 4.095479011535645 -23.5738468170166 3.303729057312012 -22.7048454284668 2.698648929595947 -21.66204643249512 C 2.093569040298462 -20.6192569732666 1.79102897644043 -19.38979530334473 1.79102897644043 -17.97364616394043 C 1.79102897644043 -16.71199607849121 2.029199123382568 -15.63702583312988 2.505538940429688 -14.74871635437012 C 2.981868982315063 -13.86040592193604 3.606259107589722 -13.12015628814697 4.378698825836182 -12.52794647216797 C 5.151138782501221 -11.93574619293213 6.026578903198242 -11.45296573638916 7.004999160766602 -11.07962608337402 C 7.983418941497803 -10.70627593994141 8.98759937286377 -10.39086627960205 10.01751899719238 -10.13338565826416 C 11.02168941497803 -9.850155830383301 12.01298904418945 -9.592676162719727 12.99140930175781 -9.360945701599121 C 13.96982860565186 -9.129216194152832 14.84525871276855 -8.858856201171875 15.61769866943359 -8.549885749816895 C 16.3901481628418 -8.24090576171875 17.01452827453613 -7.854686260223389 17.49086952209473 -7.391225814819336 C 17.96720886230469 -6.927755832672119 18.20537948608398 -6.322676181793213 18.20537948608398 -5.575985908508301 C 18.20537948608398 -4.880795955657959 18.02514839172363 -4.307896137237549 17.66466903686523 -3.857306003570557 C 17.30419921875 -3.406716108322144 16.85360908508301 -3.052685976028442 16.31289863586426 -2.795206069946289 C 15.77218914031982 -2.537725925445557 15.19285869598389 -2.363925933837891 14.57490921020508 -2.273806095123291 C 13.95695877075195 -2.183686017990112 13.37762928009033 -2.138626098632812 12.83691883087158 -2.138626098632812 C 12.03872871398926 -2.138626098632812 11.26628875732422 -2.235186100006104 10.51959896087646 -2.428296089172363 C 9.772909164428711 -2.621406078338623 9.122769355773926 -2.917505979537964 8.569189071655273 -3.316596031188965 C 8.015608787536621 -3.715696096420288 7.57145881652832 -4.237095832824707 7.236729145050049 -4.880795955657959 C 6.902009010314941 -5.524496078491211 6.734649181365967 -6.309805870056152 6.734649181365967 -7.236735820770264 L 0.8640990257263184 -7.236735820770264 C 0.8383490443229675 -5.537365913391113 1.147328972816467 -4.06972599029541 1.79102897644043 -2.833826065063477 C 2.434729099273682 -1.597926020622253 3.303729057312012 -0.5808760523796082 4.398018836975098 0.2173139601945877 C 5.492309093475342 1.015504002571106 6.753959178924561 1.601263999938965 8.182969093322754 1.974614024162292 C 9.611979484558105 2.34796404838562 11.08605861663818 2.534633874893188 12.60518932342529 2.534633874893188 M 12.60518932342529 3.534633874893188 C 11.00788879394531 3.534633874893188 9.434988975524902 3.335294008255005 7.93018913269043 2.942133903503418 C 6.38615894317627 2.538733959197998 4.999488830566406 1.893793940544128 3.808718919754028 1.025223970413208 C 2.593899011611938 0.1391239613294601 1.616649031639099 -1.003836035728455 0.9041190147399902 -2.371886014938354 C 0.1859190165996552 -3.750826120376587 -0.1639609783887863 -5.392695903778076 -0.1357909888029099 -7.251885890960693 L -0.1208609864115715 -8.236736297607422 L 0.8640990257263184 -8.236736297607422 L 6.734649181365967 -8.236736297607422 L 7.734649181365967 -8.236736297607422 L 7.734649181365967 -7.236735820770264 C 7.734649181365967 -6.476356029510498 7.865629196166992 -5.838915824890137 8.12394905090332 -5.342145919799805 C 8.388029098510742 -4.834306240081787 8.724959373474121 -4.437076091766357 9.153999328613281 -4.127766132354736 C 9.603818893432617 -3.803486108779907 10.1475191116333 -3.557425975799561 10.76997947692871 -3.396445989608765 C 11.43146896362305 -3.225366115570068 12.1268892288208 -3.138626098632812 12.83691883087158 -3.138626098632812 C 13.32696914672852 -3.138626098632812 13.8631591796875 -3.180586099624634 14.43059921264648 -3.263335943222046 C 14.94655895233154 -3.338586091995239 15.43520927429199 -3.484846115112305 15.88296890258789 -3.698065996170044 C 16.28915977478027 -3.891495943069458 16.61653900146484 -4.147915840148926 16.88379859924316 -4.481996059417725 C 17.10018920898438 -4.752486228942871 17.20537948608398 -5.110325813293457 17.20537948608398 -5.575985908508301 C 17.20537948608398 -6.052035808563232 17.07450866699219 -6.401105880737305 16.79350852966309 -6.674506187438965 C 16.41362953186035 -7.044116020202637 15.89306926727295 -7.362706184387207 15.24630928039551 -7.621406078338623 C 14.52309894561768 -7.910686016082764 13.68689918518066 -8.168556213378906 12.76093864440918 -8.387866020202637 C 11.77803993225098 -8.620656967163086 10.76854228973389 -8.882749557495117 9.760310173034668 -9.16691780090332 C 8.701617240905762 -9.432208061218262 7.654771327972412 -9.761351585388184 6.648488998413086 -10.14533615112305 C 5.584259033203125 -10.55141639709473 4.615889072418213 -11.08603572845459 3.77026891708374 -11.73433589935303 C 2.887938976287842 -12.41079616546631 2.165919065475464 -13.26598644256592 1.62424898147583 -14.27614593505859 C 1.071369051933289 -15.30719566345215 0.7910290360450745 -16.55121612548828 0.7910290360450745 -17.97364616394043 C 0.7910290360450745 -19.56174659729004 1.141839027404785 -20.97155570983887 1.833709001541138 -22.16392517089844 C 2.508219003677368 -23.32636642456055 3.403499126434326 -24.30889511108398 4.494688987731934 -25.08421516418457 C 5.565079212188721 -25.84476661682129 6.7895188331604 -26.41502571105957 8.133978843688965 -26.77914619445801 C 9.449329376220703 -27.1353759765625 10.78473854064941 -27.31600570678711 12.10309886932373 -27.31600570678711 C 13.6176586151123 -27.31600570678711 15.09390926361084 -27.14408683776855 16.49084854125977 -26.80500602722168 C 17.93221855163574 -26.45516586303711 19.23477935791016 -25.87756538391113 20.36233901977539 -25.08826637268066 C 21.51607894897461 -24.2806568145752 22.44429969787598 -23.2358455657959 23.1211986541748 -21.98287582397461 C 23.80319976806641 -20.72045516967773 24.14899826049805 -19.18963623046875 24.14899826049805 -17.43294525146484 L 24.14899826049805 -16.43294525146484 L 23.14899826049805 -16.43294525146484 L 17.2784481048584 -16.43294525146484 L 16.33899879455566 -16.43294525146484 L 16.28039932250977 -17.37056541442871 C 16.23835945129395 -18.04305648803711 16.10363960266113 -18.59113693237305 15.87995910644531 -18.99958610534668 C 15.66472911834717 -19.39262580871582 15.39163875579834 -19.69007682800293 15.04508876800537 -19.90894508361816 C 14.66083908081055 -20.15163612365723 14.20797920227051 -20.32734680175781 13.69906902313232 -20.43120574951172 C 13.13681888580322 -20.54594612121582 12.50889873504639 -20.6041259765625 11.83274936676025 -20.6041259765625 C 11.41492938995361 -20.6041259765625 10.99045944213867 -20.55936622619629 10.5711088180542 -20.4710865020752 C 10.19901943206787 -20.39274597167969 9.873108863830566 -20.2610969543457 9.574789047241211 -20.06863594055176 C 9.28947925567627 -19.88456535339355 9.062158584594727 -19.66214561462402 8.879829406738281 -19.38865661621094 C 8.73500919342041 -19.17143630981445 8.661579132080078 -18.86427688598633 8.661579132080078 -18.47573661804199 C 8.661579132080078 -18.13030624389648 8.717128753662109 -17.85744667053223 8.822218894958496 -17.68666648864746 C 8.857909202575684 -17.62866592407227 9.020309448242188 -17.41788673400879 9.611088752746582 -17.1413459777832 C 10.15950870513916 -16.88464546203613 10.94770908355713 -16.61926651000977 11.95377922058105 -16.35259628295898 C 13.00888729095459 -16.07292747497559 14.40718269348145 -15.71204853057861 16.10996246337891 -15.27994537353516 C 16.65650177001953 -15.16928100585938 17.37832069396973 -14.9805850982666 18.31520843505859 -14.70348644256592 C 19.31916809082031 -14.40652561187744 20.32460975646973 -13.92975616455078 21.30360984802246 -13.28640556335449 C 22.31427955627441 -12.62224578857422 23.19616889953613 -11.72771644592285 23.92476844787598 -10.62765598297119 C 24.68861961364746 -9.474395751953125 25.07592964172363 -8.008666038513184 25.07592964172363 -6.271185874938965 C 25.07592964172363 -4.872325897216797 24.79912948608398 -3.55116605758667 24.25321960449219 -2.34441614151001 C 23.70180892944336 -1.125496029853821 22.87337875366211 -0.06106603518128395 21.79093933105469 0.8193139433860779 C 20.72941970825195 1.682683944702148 19.40718841552734 2.360604047775269 17.86098861694336 2.834213972091675 C 16.34364891052246 3.298984050750732 14.57534885406494 3.534633874893188 12.60518932342529 3.534633874893188 Z"/></g></svg>