<svg xmlns="http://www.w3.org/2000/svg" width="24" height="24" viewBox="0 0 24 24"><defs><style>.a{fill:none;}.b{fill:#777;fill-rule:evenodd;}</style></defs><rect class="a" width="24" height="24"/><path class="b" d="M17.187-16.031l-3.122-3.1L11.62-16.7l3.115,3.1a3.823,3.823,0,0,1,1.112,2.7,3.834,3.834,0,0,1-1.111,2.7A3.87,3.87,0,0,1,12.016-7.1a3.86,3.86,0,0,1-2.7-1.082l-.039-.034L6.17-11.295,3.717-8.868,6.844-5.786a7.234,7.234,0,0,0,5.172,2.123,7.275,7.275,0,0,0,5.172-2.122A7.172,7.172,0,0,0,19.308-10.9a7.166,7.166,0,0,0-2.121-5.128" transform="translate(2.376 25.177)"/><path class="b" d="M14.807-20.222l-2.626-2.591L9.735-20.394l2.627,2.6Z" transform="translate(0.425 25.065)"/><path class="b" d="M2.446-13.158,0-10.732l2.626,2.6L5.072-10.56Z" transform="translate(2.27 23.235)"/></svg>