<svg xmlns="http://www.w3.org/2000/svg" xmlns:xlink="http://www.w3.org/1999/xlink" width="32" height="32" viewBox="0 0 32 32"><defs><style>.a{fill:#fff;}.b{clip-path:url(#a);}</style><clipPath id="a"><path class="a" d="M0,0H32V32H0Z"/></clipPath></defs><g class="b"><path class="a" d="M18.667,23.333A2.667,2.667,0,1,0,16,20.667,2.675,2.675,0,0,0,18.667,23.333Zm8-12H25.333V8.667A6.667,6.667,0,0,0,12,8.667v2.667H10.667A2.675,2.675,0,0,0,8,14V27.333A2.675,2.675,0,0,0,10.667,30h16a2.675,2.675,0,0,0,2.667-2.667V14A2.675,2.675,0,0,0,26.667,11.333ZM14.533,8.667a4.133,4.133,0,0,1,8.267,0v2.667H14.533ZM26.667,27.333h-16V14h16Z" transform="translate(-2.667 -0.667)"/></g></svg>