<svg xmlns="http://www.w3.org/2000/svg" width="36" height="32" viewBox="0 0 36 32"><defs><style>.a{fill:#4d4d4f;fill-rule:evenodd;}</style></defs><g transform="translate(-128 -361)"><g transform="translate(113 209)"><g transform="translate(0 147)"><path class="a" d="M28.157,5l4.155,4.132,15.72-.083A2.96,2.96,0,0,1,51,12V34.007A3,3,0,0,1,47.993,37H18.007A3,3,0,0,1,15,34.007V7.951A2.96,2.96,0,0,1,17.968,5Zm10.988,7.031L27.407,15.824a.623.623,0,0,0-.432.593v9.005a4.277,4.277,0,0,0-3.433.069c-2.012.885-3.043,2.964-2.3,4.644s2.972,2.325,4.984,1.44a3.832,3.832,0,0,0,2.47-4.118V19.43a.623.623,0,0,1,.456-.6l8.127-2.269a.623.623,0,0,1,.791.587l.13,6.23a4.27,4.27,0,0,0-3.461.056c-2.012.885-3.042,2.964-2.3,4.644s2.972,2.325,4.984,1.44a3.968,3.968,0,0,0,2.537-3.638h.005V12.623A.623.623,0,0,0,39.146,12.031Z"/></g></g></g></svg>