<svg xmlns="http://www.w3.org/2000/svg" width="36" height="32" viewBox="0 0 36 32"><defs><style>.a{fill:#565656;fill-rule:evenodd;}</style></defs><g transform="translate(-128 -598)"><g transform="translate(113 209)"><g transform="translate(0 382)"><path class="a" d="M28.157,7l4.155,4.132,15.72-.083A2.96,2.96,0,0,1,51,14V36.007A3,3,0,0,1,47.993,39H18.007A3,3,0,0,1,15,36.007V9.951A2.96,2.96,0,0,1,17.968,7ZM23,32H19v4h4Zm12,0H31v4h4Zm12,0H43v4h4ZM23,26H19v4h4Zm6,0H25v4h4Zm12,0H31v4H41ZM29,20H19v4H29Zm18,0H43v4h4Zm-6-6H37v4h4Z"/></g></g></g></svg>