<svg xmlns="http://www.w3.org/2000/svg" width="40" height="40" viewBox="0 0 40 40"><defs><style>.a{fill:#fff;}.b{fill:none;}</style></defs><path class="a" d="M27,20a6.989,6.989,0,0,0-3.889-6.261v3.438L26.93,21A7.058,7.058,0,0,0,27,20Zm3.889,0a10.759,10.759,0,0,1-.84,4.107l2.357,2.357A13.968,13.968,0,0,0,23.111,6.358V9.57A10.887,10.887,0,0,1,30.889,20ZM7.983,6,6,7.983l7.35,7.35H6v9.333h6.222L20,32.444V21.983L26.619,28.6a10.96,10.96,0,0,1-3.508,1.836V33.65a13.953,13.953,0,0,0,5.732-2.816L32.017,34,34,32.017l-14-14ZM20,7.556l-3.251,3.251L20,14.058Z" transform="translate(0 0)"/><path class="b" d="M0,0H40V40H0Z"/></svg>