<svg xmlns="http://www.w3.org/2000/svg" width="24" height="21.333" viewBox="0 0 24 21.333"><defs><style>.a{fill:#fff;fill-rule:evenodd;}</style></defs><g transform="translate(0 0)"><path class="a" d="M13.612-24.582l.757,7.432.034.08c.332.765.83.88,1.1.88s.766-.114,1.1-.879l.032-.074.767-6.09.766,3.925.024.056c.332.765.83.88,1.1.88s.765-.114,1.1-.88l.775-1.787.02-.044.02.044.57,1.315.03.059a1.6,1.6,0,0,0,.387.492,1.144,1.144,0,0,0,.552.183l.033,0H24v6.325a2,2,0,0,1-2,2H2a2,2,0,0,1-2-2v-8.624l2.155.007h.013l.02.028h0l.866,2c.332.765.83.88,1.1.88s.765-.114,1.1-.88l.024-.056.765-3.919L6.8-16.42l.033.077c.332.765.83.88,1.1.88s.765-.114,1.1-.88l.036-.082.757-8.143.759,9.594.037.086c.332.765.83.88,1.1.88s.765-.114,1.1-.879l.037-.086ZM8.772-32l2.77,2.754,10.48-.055A1.973,1.973,0,0,1,24-27.333h0v7.207H22.878l-.047-.075-.556-1.283c-.332-.765-.83-.879-1.1-.879s-.765.114-1.1.88L19.305-19.7l-.009.021h0l-.01.019-.766-3.925-.006-.028-.024-.056c-.332-.765-.83-.88-1.1-.88s-.765.114-1.1.879l-.032.073L15.5-17.555l-.763-7.486-.034-.08c-.332-.765-.83-.88-1.1-.88s-.766.114-1.1.879l-.037.086-.758,9.566-.757-9.566-.037-.085c-.332-.765-.83-.88-1.1-.88s-.765.114-1.1.88l-.035.082L7.932-16.85l-.759-6.739-.033-.077c-.332-.765-.83-.88-1.1-.88s-.766.114-1.1.88l-.024.056-.772,3.954-.018-.04-.907-2.091L3.2-21.829a1.569,1.569,0,0,0-.342-.4,1.2,1.2,0,0,0-.648-.188L0-22.425v-7.607A1.972,1.972,0,0,1,1.862-32l.116,0Z" transform="translate(0 32)"/></g></svg>