<svg xmlns="http://www.w3.org/2000/svg" width="36" height="32" viewBox="0 0 36 32"><defs><style>.a{fill:#565656;fill-rule:evenodd;}</style></defs><g transform="translate(-128 -313)"><g transform="translate(113 209)"><g transform="translate(0 100)"><path class="a" d="M28.157,4l4.155,4.132,15.72-.083A2.96,2.96,0,0,1,51,11V33.007A3,3,0,0,1,47.993,36H18.007A3,3,0,0,1,15,33.007V6.951A2.96,2.96,0,0,1,17.968,4Zm14.7,8c-1.809,3.061-8.72,1.371-15.3,4.085-3.477,1.394-6.011,4.136-5.5,10.118,3.827-4.7,10.066-4.7,16.174-7.788-4.314,4.427-13.172,4.35-15.712,10.538C32.838,35.295,43.963,25.571,42.862,12Z"/></g></g></g></svg>