<svg xmlns="http://www.w3.org/2000/svg" width="42.191" height="30.554" viewBox="0 0 42.191 30.554"><defs><style>.a{fill:#fff;}</style></defs><g transform="translate(0)"><g transform="translate(13.904)"><path class="a" d="M458.312,788.183l.062-.144c.585-1.348,1.462-1.549,1.933-1.549s1.348.2,1.933,1.549l.066.15,1.334,16.846,1.334-16.846.066-.15c.583-1.348,1.461-1.55,1.933-1.55s1.348.2,1.931,1.55l.061.14,1.343,13.184.088-.7V782.047l-13.488-.163v20.142l.065.578Z" transform="translate(-456.907 -781.884)"/><path class="a" d="M468.37,801.162l-.06-.14-1.334-13.089-1.34,16.921-.066.15c-.584,1.348-1.461,1.55-1.931,1.55s-1.348-.2-1.933-1.55l-.066-.15-1.337-16.9L458.971,802.3l-.062.144c-.585,1.348-1.462,1.55-1.933,1.55-.021,0-.047,0-.069,0v7.233l13.488.164v-8.679c-.031,0-.065.006-.093.006C469.832,802.712,468.954,802.51,468.37,801.162Z" transform="translate(-456.907 -780.831)"/></g><g transform="translate(0 7.113)"><path class="a" d="M458.969,800.917l-1.272-11.29-.059-.135c-.585-1.348-1.462-1.55-1.933-1.55s-1.348.2-1.933,1.55l-.042.1-1.36,6.964c-.011-.022-.021-.046-.032-.072l-1.6-3.682-.048-.074a2.781,2.781,0,0,0-.6-.707,2.121,2.121,0,0,0-1.142-.33l-3.885-.013v2.006l3.795.012.022,0,.035.049,1.525,3.518c.584,1.348,1.461,1.549,1.931,1.549s1.348-.2,1.932-1.549l.042-.1,1.348-6.9,1.35,11.989.059.135c.559,1.288,1.38,1.526,1.863,1.545Z" transform="translate(-445.065 -787.942)"/><path class="a" d="M481.294,795.724c-.027-.041-.055-.086-.082-.132l-.98-2.259c-.584-1.347-1.462-1.549-1.933-1.549s-1.348.2-1.933,1.55L475,796.481l-.016.038-.018.033-1.348-6.912-.011-.051-.042-.1c-.585-1.348-1.462-1.55-1.933-1.55s-1.348.2-1.931,1.549l-.056.129L468.4,799.55v3.1a2.16,2.16,0,0,0,1.84-1.544l.056-.129,1.351-10.724,1.349,6.913.042.1c.585,1.348,1.462,1.549,1.933,1.549s1.348-.2,1.933-1.549l1.364-3.148.035-.076c.012.023.023.049.035.076l1.005,2.317.052.1a2.822,2.822,0,0,0,.682.866,2.02,2.02,0,0,0,.972.323l.058.006h2.092v-2.008Z" transform="translate(-441.003 -787.942)"/></g></g></svg>