<svg xmlns="http://www.w3.org/2000/svg" width="48" height="48" viewBox="0 0 48 48"><defs><style>.a{fill:#30b7a7;}.b{fill:rgba(255,255,255,0.5);stroke:#fff;stroke-width:2px;}.c{stroke:none;}.d{fill:none;}</style></defs><path class="a" d="M10,0H48a0,0,0,0,1,0,0V48a0,0,0,0,1,0,0H10A10,10,0,0,1,0,38V10A10,10,0,0,1,10,0Z"/><g transform="translate(4.898 6)"><g class="b"><ellipse class="c" cx="11.755" cy="12.5" rx="11.755" ry="12.5"/><ellipse class="d" cx="11.755" cy="12.5" rx="10.755" ry="11.5"/></g><g class="b" transform="translate(4.898 6)"><ellipse class="c" cx="6.367" cy="6.5" rx="6.367" ry="6.5"/><ellipse class="d" cx="6.367" cy="6.5" rx="5.367" ry="5.5"/></g></g><g class="b" transform="translate(19.592 18)"><ellipse class="c" cx="11.755" cy="12.5" rx="11.755" ry="12.5"/><ellipse class="d" cx="11.755" cy="12.5" rx="10.755" ry="11.5"/></g><g transform="translate(24.49 24)"><g class="b"><ellipse class="c" cx="6.367" cy="6.5" rx="6.367" ry="6.5"/><ellipse class="d" cx="6.367" cy="6.5" rx="5.367" ry="5.5"/></g></g></svg>