<svg xmlns="http://www.w3.org/2000/svg" width="95" height="48" viewBox="0 0 95 48"><defs><style>.a,.b{fill:rgba(48,183,167,0.5);}.a,.c,.d,.e{stroke:#30b7a7;}.b{stroke:#000;stroke-width:2px;}.c{fill:#30b7a7;}.d,.e{fill:#fff;}.e{stroke-linejoin:round;}.f{stroke:none;}.g{fill:none;}</style></defs><g transform="translate(-87.902 -194.863)"><g transform="translate(87.902 194.863)"><g class="a"><path class="f" d="M10,0H48a0,0,0,0,1,0,0V48a0,0,0,0,1,0,0H10A10,10,0,0,1,0,38V10A10,10,0,0,1,10,0Z"/><path class="g" d="M10,.5H47a.5.5,0,0,1,.5.5V47a.5.5,0,0,1-.5.5H10A9.5,9.5,0,0,1,.5,38V10A9.5,9.5,0,0,1,10,.5Z"/></g><g transform="translate(4.898 6)"><g class="b"><ellipse class="f" cx="11.755" cy="12.5" rx="11.755" ry="12.5"/><ellipse class="g" cx="11.755" cy="12.5" rx="10.755" ry="11.5"/></g><g class="b" transform="translate(5.302 6)"><ellipse class="f" cx="6.367" cy="6.5" rx="6.367" ry="6.5"/><ellipse class="g" cx="6.367" cy="6.5" rx="5.367" ry="5.5"/></g></g><g class="b" transform="translate(19.592 18)"><ellipse class="f" cx="11.755" cy="12.5" rx="11.755" ry="12.5"/><ellipse class="g" cx="11.755" cy="12.5" rx="10.755" ry="11.5"/></g><g transform="translate(25 24)"><g class="b"><ellipse class="f" cx="6.367" cy="6.5" rx="6.367" ry="6.5"/><ellipse class="g" cx="6.367" cy="6.5" rx="5.367" ry="5.5"/></g></g></g><g transform="translate(134.902 194.863)"><g class="c"><path class="f" d="M0,0H38A10,10,0,0,1,48,10V38A10,10,0,0,1,38,48H0a0,0,0,0,1,0,0V0A0,0,0,0,1,0,0Z"/><path class="g" d="M1,.5H38A9.5,9.5,0,0,1,47.5,10V38A9.5,9.5,0,0,1,38,47.5H1A.5.5,0,0,1,.5,47V1A.5.5,0,0,1,1,.5Z"/></g><g transform="translate(7.647 8.1)"><g class="d" transform="translate(0 23.055)"><ellipse class="f" cx="16.892" cy="4.873" rx="16.892" ry="4.873"/><ellipse class="g" cx="16.892" cy="4.873" rx="16.392" ry="4.373"/></g><path class="e" d="M188.761,239.292,181.113,211.7l7.647,5.552L196,211.514Z" transform="translate(-171.988 -211.514)"/></g></g></g></svg>